<svg xmlns="http://www.w3.org/2000/svg" width="56.278" height="40.201" viewBox="0 0 56.278 40.201">
  <g id="airplane-flying" transform="translate(0 -0.052)">
    <path id="Path_170" data-name="Path 170" d="M58.009,34.869H39.058V31.424H58.009a.591.591,0,0,0,.574-.6.644.644,0,0,0-.106-.322,10.342,10.342,0,0,0-8.784-4.826H17.359a4,4,0,0,1-3.834-2.814l-2.1-6.662A2.857,2.857,0,0,0,9.2,14.242V26.255a5.175,5.175,0,0,0,5.168,5.168H28.721v3.446H14.364A8.625,8.625,0,0,1,5.75,26.255V13.688A2.942,2.942,0,0,1,8.688,10.75a6.285,6.285,0,0,1,6.025,4.422l2.1,6.659a.574.574,0,0,0,.549.4H49.693A13.791,13.791,0,0,1,61.42,28.713a4.15,4.15,0,0,1,.609,2.113A4.035,4.035,0,0,1,58.009,34.869Z" transform="translate(-5.75 -8.399)" fill="#0583e0"/>
    <path id="Path_171" data-name="Path 171" d="M18.818,39.116H14.472a1.723,1.723,0,0,1-1.613-2.327l6.891-18.377,3.225,1.211L16.958,35.67h1.861a2.855,2.855,0,0,0,2.435-1.351L31.39,18.1l2.92,1.826L24.175,36.146A6.28,6.28,0,0,1,18.818,39.116Z" transform="translate(3.33 1.138)" fill="#0583e0"/>
    <path id="Path_172" data-name="Path 172" d="M28.518,26.169,21.252,14.545a2.855,2.855,0,0,0-2.435-1.351H16.957l4.3,11.453-3.225,1.211L12.859,12.076a1.723,1.723,0,0,1,1.613-2.327h4.346a6.277,6.277,0,0,1,5.357,2.97l7.263,11.623Z" transform="translate(3.493 -9.697)" fill="#0583e0"/>
  </g>
</svg>
