<svg xmlns="http://www.w3.org/2000/svg" width="54.068" height="54.068" viewBox="0 0 54.068 54.068">
  <g id="analytics2" transform="translate(0 -0.5)">
    <path id="Path_1039" data-name="Path 1039" d="M187.739,46.457l-7.92-7.92a1.583,1.583,0,0,0-2.24,0l-1.12,1.12-2.208-2.208a11.033,11.033,0,0,0,2.09-5.056h1.7a1.584,1.584,0,0,0,1.584-1.584V2.083A1.584,1.584,0,0,0,178.043.5h-9.5a1.584,1.584,0,0,0-1.584,1.584V19.838a11.2,11.2,0,0,0-3.168,0V8.42A1.584,1.584,0,0,0,162.2,6.836h-9.61a1.584,1.584,0,0,0-1.584,1.584V30.808a1.584,1.584,0,0,0,1.584,1.584H154.4a11.083,11.083,0,0,0,17.611,7.3l2.208,2.208-1.12,1.12a1.583,1.583,0,0,0,0,2.24l7.921,7.92a4.752,4.752,0,1,0,6.721-6.721ZM170.122,3.668h6.336V29.224h-.118a11.073,11.073,0,0,0-6.219-8.434ZM154.176,10h6.442V20.79a11.072,11.072,0,0,0-6.219,8.434h-.224Zm5.594,26.4a7.92,7.92,0,1,1,11.2,0A7.93,7.93,0,0,1,159.77,36.409ZM185.5,50.937a1.585,1.585,0,0,1-2.24,0l-6.8-6.8,2.24-2.24,6.8,6.8A1.585,1.585,0,0,1,185.5,50.937Zm0,0" transform="translate(-135.061 0)" fill="#095adb"/>
    <path id="Path_1040" data-name="Path 1040" d="M1.584,139.724h9.61a1.584,1.584,0,0,0,1.584-1.584V122.088a1.584,1.584,0,0,0-1.584-1.584H1.584A1.584,1.584,0,0,0,0,122.088V138.14A1.584,1.584,0,0,0,1.584,139.724Zm1.584-16.052H9.61v12.884H3.168Zm0,0" transform="translate(0 -107.332)" fill="#095adb"/>
  </g>
</svg>
