<svg xmlns="http://www.w3.org/2000/svg" width="66.5" height="66.5" viewBox="0 0 66.5 66.5">
  <g id="analytics" transform="translate(0 -0.5)">
    <path id="Path_1039" data-name="Path 1039" d="M196.185,57.024l-9.742-9.742a1.948,1.948,0,0,0-2.755,0l-1.378,1.377-2.716-2.715a13.569,13.569,0,0,0,2.571-6.219h2.093a1.948,1.948,0,0,0,1.948-1.948V2.448A1.948,1.948,0,0,0,184.259.5h-11.69a1.948,1.948,0,0,0-1.948,1.948V24.284a13.771,13.771,0,0,0-3.9,0V10.241a1.948,1.948,0,0,0-1.948-1.948h-11.82a1.948,1.948,0,0,0-1.948,1.948V37.777a1.948,1.948,0,0,0,1.948,1.948h2.223A13.631,13.631,0,0,0,176.84,48.7l2.715,2.716-1.377,1.378a1.948,1.948,0,0,0,0,2.755l9.742,9.742a5.845,5.845,0,1,0,8.266-8.266ZM174.517,4.4h7.793V35.829h-.145a13.618,13.618,0,0,0-7.648-10.374ZM154.9,12.189h7.923V25.455a13.618,13.618,0,0,0-7.648,10.374H154.9Zm6.88,32.476a9.742,9.742,0,1,1,13.777,0A9.753,9.753,0,0,1,161.784,44.665ZM193.43,62.534a1.95,1.95,0,0,1-2.755,0l-8.364-8.364,2.755-2.755,8.364,8.364A1.95,1.95,0,0,1,193.43,62.534Zm0,0" transform="translate(-131.395)" fill="#009eff"/>
    <path id="Path_1040" data-name="Path 1040" d="M1.948,144.144h11.82a1.948,1.948,0,0,0,1.948-1.948V122.452a1.948,1.948,0,0,0-1.948-1.948H1.948A1.948,1.948,0,0,0,0,122.452V142.2A1.948,1.948,0,0,0,1.948,144.144ZM3.9,124.4H11.82v15.846H3.9Zm0,0" transform="translate(0 -104.418)" fill="#009eff"/>
  </g>
</svg>
