<svg xmlns="http://www.w3.org/2000/svg" width="50.339" height="56.151" viewBox="0 0 50.339 56.151">
  <path id="approval" d="M23.579,53.958a2.193,2.193,0,0,1-2.193,2.193H8.774A8.783,8.783,0,0,1,0,47.378V8.774A8.783,8.783,0,0,1,8.774,0H35.741a8.784,8.784,0,0,1,8.774,8.774v23.25a2.193,2.193,0,0,1-4.387,0V8.774a4.392,4.392,0,0,0-4.387-4.387H8.774A4.392,4.392,0,0,0,4.387,8.774v38.6a4.392,4.392,0,0,0,4.387,4.387H21.386a2.193,2.193,0,0,1,2.193,2.193ZM49.422,35.724a2.194,2.194,0,0,0-3.06.506L35.55,51.332a1.253,1.253,0,0,1-1.8.093l-7-6.721a2.193,2.193,0,0,0-3.038,3.164L30.716,54.6a5.658,5.658,0,0,0,3.891,1.555q.186,0,.372-.012A5.653,5.653,0,0,0,39,54.044c.025-.031.05-.064.074-.1L49.929,38.784a2.193,2.193,0,0,0-.507-3.06ZM33.547,13.16H10.955a2.193,2.193,0,0,0,0,4.387H33.547a2.193,2.193,0,0,0,0-4.387Zm2.193,10.967a2.194,2.194,0,0,0-2.193-2.193H10.955a2.193,2.193,0,0,0,0,4.387H33.547A2.194,2.194,0,0,0,35.741,24.128Zm-24.786,6.58a2.193,2.193,0,0,0,0,4.387H24.676a2.193,2.193,0,1,0,0-4.387Zm0,0" fill="#095adb"/>
</svg>
