<svg xmlns="http://www.w3.org/2000/svg" width="48.911" height="49.056" viewBox="0 0 48.911 49.056">
  <g id="call-answer-symbol-of-an-auricular-with-right-arrow" transform="translate(-0.427 0.75)">
    <g id="Group_531" data-name="Group 531" transform="translate(1.193)">
      <path id="Path_1219" data-name="Path 1219" d="M6.891,28.224A176.893,176.893,0,0,0,22.646,43.076a19.275,19.275,0,0,0,12.1,4.48,17.41,17.41,0,0,0,2.071-.125c7.7-.93,10.517-5.863,11.514-8.721a3.364,3.364,0,0,0-1.894-3.982l-9.033-4.015a3.724,3.724,0,0,0-1.5-.294,4.323,4.323,0,0,0-2.923,1.08l-2.847,2.757a2.853,2.853,0,0,1-1.871.686,1.706,1.706,0,0,1-.758-.153,30.907,30.907,0,0,1-8.421-6.576c-.012-.012-.023-.024-.033-.037a7.1,7.1,0,0,1,1.042-.035h2.157a.257.257,0,0,1,.259.262L22.5,29.486a1.364,1.364,0,0,0,.688,1.3,1.17,1.17,0,0,0,.526.124,1.559,1.559,0,0,0,.927-.34l6.478-4.846a1.566,1.566,0,0,0,0-2.581L24.671,18.3a1.385,1.385,0,0,0-1.454-.217,1.367,1.367,0,0,0-.7,1.293v.984a.269.269,0,0,1-.269.269H14.775c-.594,0-1.068-.468-.855-.988a2.6,2.6,0,0,1,.543-.854L17,16.252a4.731,4.731,0,0,0,1.079-4.409L15.226,2.8a4.06,4.06,0,0,0-3.6-2.8A9.741,9.741,0,0,0,3.571,4.5C-.111,10.028.11,20.67,6.891,28.224Zm17.244-7.867v-.223c0-.123.385.067.86.423l4.3,3.229a.761.761,0,0,1,0,1.289L24.983,28.3c-.475.356-.86.526-.859.38l0-.265a1.871,1.871,0,0,0-1.872-1.889H18.641a2.613,2.613,0,0,1-1.772-.819c-.821-.987-1.457-1.841-1.95-2.566-.334-.491-.1-.9.492-.9h6.842A1.882,1.882,0,0,0,24.135,20.357ZM11.717,1.614a2.511,2.511,0,0,1,1.971,1.671l2.848,9.043a3.128,3.128,0,0,1-.681,2.783l-2.533,2.53a4.2,4.2,0,0,0-.907,4.491,34.322,34.322,0,0,0,5.5,7.185,32.541,32.541,0,0,0,8.87,6.912,3.324,3.324,0,0,0,1.484.321,4.432,4.432,0,0,0,2.992-1.138L34.1,32.656a2.742,2.742,0,0,1,1.8-.627,2.108,2.108,0,0,1,.845.157L45.782,36.2a1.783,1.783,0,0,1,1.027,1.976c-.873,2.5-3.358,6.827-10.183,7.652a15.715,15.715,0,0,1-1.879.113A17.853,17.853,0,0,1,23.7,41.855,176.9,176.9,0,0,1,8.091,27.145C2.024,20.386,1.55,10.441,4.913,5.4A8.225,8.225,0,0,1,11.717,1.614Z" transform="translate(-1.193)" fill="#095adb" stroke="#095adb" stroke-width="1.5"/>
    </g>
  </g>
</svg>
