<svg xmlns="http://www.w3.org/2000/svg" width="51.545" height="51.544" viewBox="0 0 51.545 51.544">
  <g id="computer" transform="translate(0 -1.704)">
    <path id="Path_86" data-name="Path 86" d="M53.786,44.363H9.758A3.763,3.763,0,0,1,6,40.6V13.758A3.763,3.763,0,0,1,9.758,10h5.906v3.222H9.758a.543.543,0,0,0-.537.537V40.6a.543.543,0,0,0,.537.537H53.786a.543.543,0,0,0,.537-.537V13.758a.543.543,0,0,0-.537-.537H47.88V10h5.906a3.763,3.763,0,0,1,3.758,3.758V40.6A3.763,3.763,0,0,1,53.786,44.363Z" transform="translate(-6 0.295)" fill="#0583e0"/>
    <path id="Path_87" data-name="Path 87" d="M13,28.5H34.477v3.222H13Z" transform="translate(2.034 21.527)" fill="#0583e0"/>
    <path id="Path_88" data-name="Path 88" d="M17.25,25.25h3.222v8.591H17.25Z" transform="translate(6.912 17.797)" fill="#0583e0"/>
    <path id="Path_89" data-name="Path 89" d="M36.162,25.989a1.627,1.627,0,0,1-.453-.064l-22.551-6.6A1.613,1.613,0,0,1,12,17.776V14.554a1.61,1.61,0,0,1,1.168-1.548L35.719,6.563a1.609,1.609,0,0,1,2.053,1.548V24.378a1.615,1.615,0,0,1-.644,1.291A1.635,1.635,0,0,1,36.162,25.989Zm-20.94-9.42,19.329,5.659V10.246L15.222,15.768Z" transform="translate(0.886 -3.722)" fill="#0583e0"/>
    <path id="Path_90" data-name="Path 90" d="M22.5,6h3.222V27.477H22.5Z" transform="translate(12.937 -4.296)" fill="#0583e0"/>
    <path id="Path_91" data-name="Path 91" d="M12,9h3.222v8.591H12Z" transform="translate(0.886 -0.853)" fill="#0583e0"/>
    <path id="Path_92" data-name="Path 92" d="M18.832,20.822A4.838,4.838,0,0,1,14,15.99a4.738,4.738,0,0,1,2.326-4.1l1.619,2.786a1.49,1.49,0,0,0-.724,1.312,1.611,1.611,0,0,0,3.222,0,1.27,1.27,0,0,0-.137-.6l2.852-1.5a4.469,4.469,0,0,1,.507,2.1A4.838,4.838,0,0,1,18.832,20.822Z" transform="translate(3.182 2.467)" fill="#0583e0"/>
  </g>
</svg>
