<svg xmlns="http://www.w3.org/2000/svg" width="58.76" height="58.76" viewBox="0 0 58.76 58.76">
  <g id="content_1_" data-name="content (1)" transform="translate(0.25 0.25)">
    <path id="Path_1157" data-name="Path 1157" d="M55.349,8.95H48.843a7.264,7.264,0,0,0-9.521,0h-3.1a7.271,7.271,0,0,0-.35-4.428.853.853,0,0,0-1.579.648,5.581,5.581,0,1,1-1.81-2.343.853.853,0,0,0,1.027-1.363A7.283,7.283,0,0,0,22.036,8.95h-3.1a7.264,7.264,0,0,0-9.523,0h-6.5A2.914,2.914,0,0,0,0,11.861V44.714a2.915,2.915,0,0,0,2.911,2.912H23.337a5.512,5.512,0,0,1-2.215,5.909H19.858A2.721,2.721,0,0,0,17.244,55.2L16.73,56.6a1.232,1.232,0,0,0,1.158,1.655H40.371A1.232,1.232,0,0,0,41.529,56.6L41.016,55.2A2.72,2.72,0,0,0,38.4,53.535H37.138a5.512,5.512,0,0,1-2.215-5.909h8.593a.853.853,0,0,0,0-1.707H2.911a1.206,1.206,0,0,1-1.2-1.205V38.4H56.553v6.317a1.206,1.206,0,0,1-1.2,1.205h-8.42a.853.853,0,1,0,0,1.707h8.42a2.915,2.915,0,0,0,2.911-2.912V11.861A2.914,2.914,0,0,0,55.349,8.95ZM39.412,55.782l.281.771H18.566l.281-.771a1.049,1.049,0,0,1,1.011-.54H38.4a1.049,1.049,0,0,1,1.011.54Zm-6.233-8.157a6.959,6.959,0,0,0,1.505,5.909H23.576a6.959,6.959,0,0,0,1.505-5.909ZM49.661,14.459a5.579,5.579,0,1,1-5.579-5.579A5.586,5.586,0,0,1,49.661,14.459Zm-11.792-3.8a7.254,7.254,0,0,0-.691,1.479H34.56a7.319,7.319,0,0,0,1.025-1.479ZM23.7,12.136H21.082a7.261,7.261,0,0,0-.691-1.479h2.282A7.309,7.309,0,0,0,23.7,12.136Zm-3.94,2.323a5.579,5.579,0,1,1-5.579-5.579,5.586,5.586,0,0,1,5.579,5.579Zm-18.05-2.6a1.205,1.205,0,0,1,1.2-1.2H7.965a7.255,7.255,0,0,0-.691,1.479H4.039a.853.853,0,0,0-.853.853V28.53a.853.853,0,1,0,1.707,0V13.843H6.92c-.017.2-.028.409-.028.616a7.286,7.286,0,0,0,14.572,0c0-.208-.011-.413-.028-.616h4.517a7.275,7.275,0,0,0,6.354,0h4.517c-.017.2-.028.409-.028.616a7.286,7.286,0,0,0,14.572,0c0-.208-.011-.413-.028-.616h2.027V36.69H4.893V31.943a.853.853,0,1,0-1.707,0V36.69H1.707Zm53.367,24.83v-23.7a.853.853,0,0,0-.853-.853H50.986a7.26,7.26,0,0,0-.691-1.479h5.054a1.205,1.205,0,0,1,1.2,1.2V36.69H55.074Z" transform="translate(0)" fill="#095adb" stroke="#095adb" stroke-width="0.5"/>
    <path id="Path_1158" data-name="Path 1158" d="M240.007,363a.853.853,0,0,0,0,1.707h2.127a.853.853,0,0,0,0-1.707Z" transform="translate(-211.941 -321.691)" fill="#095adb" stroke="#095adb" stroke-width="0.5"/>
    <path id="Path_1159" data-name="Path 1159" d="M237.351,29.785a1.087,1.087,0,0,0-1.833.789v5.687a1.088,1.088,0,0,0,1.833.789l3.006-2.843a1.087,1.087,0,0,0,0-1.578h0Zm-.126,5.035v-2.8l1.482,1.4Z" transform="translate(-208.719 -26.131)" fill="#095adb" stroke="#095adb" stroke-width="0.5"/>
    <path id="Path_1160" data-name="Path 1160" d="M361.34,101.5a1.994,1.994,0,0,0,1.985-2.168c.017-.124.005.082.009-3.632a1.092,1.092,0,0,1,.813.639.849.849,0,0,0,1.169.284.858.858,0,0,0,.286-1.176,2.912,2.912,0,0,0-3.214-1.451.853.853,0,0,0-.761.849v2.69a1.993,1.993,0,1,0-.287,3.965Zm0-2.282a.287.287,0,1,1-.287.287A.288.288,0,0,1,361.34,99.216Z" transform="translate(-318.457 -83.271)" fill="#095adb" stroke="#095adb" stroke-width="0.5"/>
    <path id="Path_1161" data-name="Path 1161" d="M274.123,199.54a7.286,7.286,0,1,0-7.286-7.286A7.294,7.294,0,0,0,274.123,199.54Zm0-12.866a5.579,5.579,0,1,1-5.579,5.579A5.586,5.586,0,0,1,274.123,186.675Z" transform="translate(-236.474 -163.921)" fill="#095adb" stroke="#095adb" stroke-width="0.5"/>
    <path id="Path_1162" data-name="Path 1162" d="M293.535,236.122h4.84a.854.854,0,0,0,.69-1.356l-2.42-3.322a.854.854,0,0,0-1.38,0l-.7.958-.7-.958a.854.854,0,0,0-1.38,0l-2.42,3.322a.854.854,0,0,0,.69,1.356Zm3.162-1.707h-1.485l.038-.052,0-.006.7-.961Zm-3.518-1.019.332.456-.41.563h-.664Z" transform="translate(-256.918 -204.797)" fill="#095adb" stroke="#095adb" stroke-width="0.5"/>
    <path id="Path_1163" data-name="Path 1163" d="M346.716,216.451a.853.853,0,0,0,.853-.853v-.006a.853.853,0,1,0-.853.859Z" transform="translate(-306.508 -190.306)" fill="#095adb" stroke="#095adb" stroke-width="0.5"/>
    <path id="Path_1164" data-name="Path 1164" d="M102.4,99.957h3.54a.853.853,0,0,0,0-1.707H102.4a.853.853,0,0,0,0,1.707Z" transform="translate(-89.99 -87.07)" fill="#095adb" stroke="#095adb" stroke-width="0.5"/>
    <path id="Path_1165" data-name="Path 1165" d="M102.4,121.275h3.54a.853.853,0,0,0,0-1.707H102.4a.853.853,0,0,0,0,1.707Z" transform="translate(-89.99 -105.963)" fill="#095adb" stroke="#095adb" stroke-width="0.5"/>
    <path id="Path_1166" data-name="Path 1166" d="M102.4,142.593h3.54a.853.853,0,0,0,0-1.707H102.4a.853.853,0,0,0,0,1.707Z" transform="translate(-89.99 -124.855)" fill="#095adb" stroke="#095adb" stroke-width="0.5"/>
    <path id="Path_1167" data-name="Path 1167" d="M124.384,199.54a7.286,7.286,0,1,0-7.286-7.286A7.294,7.294,0,0,0,124.384,199.54Zm0-12.866a5.579,5.579,0,1,1-5.579,5.579A5.586,5.586,0,0,1,124.384,186.675Z" transform="translate(-103.774 -163.921)" fill="#095adb" stroke="#095adb" stroke-width="0.5"/>
    <path id="Path_1168" data-name="Path 1168" d="M149.932,218.877a.853.853,0,0,0,.853-.853v-.367h1.087v4.961a.853.853,0,1,0,1.707,0v-4.961h1.087v.367a.853.853,0,1,0,1.707,0V216.8a.853.853,0,0,0-.853-.853h-5.588a.853.853,0,0,0-.853.853v1.221A.853.853,0,0,0,149.932,218.877Z" transform="translate(-132.116 -191.377)" fill="#095adb" stroke="#095adb" stroke-width="0.5"/>
  </g>
</svg>
