<svg xmlns="http://www.w3.org/2000/svg" width="61.843" height="61.843" viewBox="0 0 61.843 61.843">
  <path id="content" d="M12.078,13.649a2.416,2.416,0,0,1,2.416-2.416H47.348a2.416,2.416,0,1,1,0,4.831H14.494A2.416,2.416,0,0,1,12.078,13.649Zm37.686,9.663A2.416,2.416,0,0,0,47.348,20.9H14.494a2.416,2.416,0,0,0,0,4.831H47.348A2.416,2.416,0,0,0,49.764,23.312ZM14.494,30.56a2.416,2.416,0,0,0,0,4.832H25.606a2.416,2.416,0,0,0,0-4.832ZM59.722,49.474A7.247,7.247,0,0,1,49.471,59.721L36.261,46.486a2.411,2.411,0,0,1-.618-1.062l-2.7-9.75a2.416,2.416,0,0,1,3.03-2.956l9.509,2.889a2.412,2.412,0,0,1,1.008.6ZM40.129,43.522l8.88,8.9L52.425,49,43.5,40.052,38.77,38.617ZM56.3,52.888l-.465-.467-3.416,3.416.467.468A2.416,2.416,0,0,0,56.3,52.888ZM52.18,0H9.662A9.674,9.674,0,0,0,0,9.664V52.181a9.674,9.674,0,0,0,9.663,9.663H39.255a2.416,2.416,0,1,0,0-4.831H9.662a4.837,4.837,0,0,1-4.831-4.831V9.664A4.837,4.837,0,0,1,9.662,4.832H52.18a4.837,4.837,0,0,1,4.832,4.831V39.377a2.416,2.416,0,0,0,4.831,0V9.664A9.674,9.674,0,0,0,52.18,0Zm0,0" transform="translate(0.001 -0.001)" fill="#009eff"/>
</svg>
