<svg xmlns="http://www.w3.org/2000/svg" width="77.328" height="62.863" viewBox="0 0 77.328 62.863">
  <path id="crown_1_" data-name="crown (1)" d="M77.328,12.682a7.744,7.744,0,1,0-12.507,6.05L50.211,29.239l-8.3-14.677a7.743,7.743,0,1,0-6.782.047L27.459,29.255,12.467,18.209A7.665,7.665,0,0,0,7.744,4.446,7.674,7.674,0,0,0,5.94,19.6l8.718,33.279V60.6a2.265,2.265,0,0,0,2.265,2.265H61.04A2.266,2.266,0,0,0,63.305,60.6V52.859l8.106-32.714a7.706,7.706,0,0,0,5.917-7.463Zm-7.744-3.15a3.151,3.151,0,1,1-3.214,3.15A3.185,3.185,0,0,1,69.584,9.531Zm-31.115-5a3.15,3.15,0,1,1,.024,6.3h-.055a3.15,3.15,0,1,1,.032-6.3Zm-33.938,7.6a3.214,3.214,0,1,1,3.213,3.15A3.186,3.186,0,0,1,4.531,12.127Zm14.658,46.2V54.849H58.774v3.484Zm40.078-8.015H18.672L11.56,23.168,26.9,34.469a2.265,2.265,0,0,0,3.351-.773l8.3-15.864,8.961,15.836a2.266,2.266,0,0,0,3.294.723L65.9,23.535Zm0,0" transform="translate(0)" fill="#009eff"/>
</svg>
