<svg xmlns="http://www.w3.org/2000/svg" width="19.592" height="19.591" viewBox="0 0 19.592 19.591">
  <g id="determination" transform="translate(0.001 -0.004)">
    <g id="Group_624" data-name="Group 624" transform="translate(-0.001 4.596)">
      <g id="Group_623" data-name="Group 623" transform="translate(0)">
        <path id="Path_1880" data-name="Path 1880" d="M2.338,120H.578a.574.574,0,0,0,0,1.148h1.76a.574.574,0,0,0,0-1.148Z" transform="translate(-0.004 -120.002)" fill="#095adb"/>
      </g>
    </g>
    <g id="Group_626" data-name="Group 626" transform="translate(16.683 4.596)">
      <g id="Group_625" data-name="Group 625">
        <path id="Path_1881" data-name="Path 1881" d="M438.331,120h-1.76a.574.574,0,0,0,0,1.148h1.76a.574.574,0,1,0,0-1.148Z" transform="translate(-435.997 -120.002)" fill="#095adb"/>
      </g>
    </g>
    <g id="Group_628" data-name="Group 628" transform="translate(-0.001 7.148)">
      <g id="Group_627" data-name="Group 627" transform="translate(0)">
        <path id="Path_1882" data-name="Path 1882" d="M2.751,187.07a.574.574,0,0,0-.734-.346l-1.636.589a.574.574,0,0,0,.389,1.08L2.4,187.8A.574.574,0,0,0,2.751,187.07Z" transform="translate(0 -186.69)" fill="#095adb"/>
      </g>
    </g>
    <g id="Group_630" data-name="Group 630" transform="translate(16.806 1.455)">
      <g id="Group_629" data-name="Group 629">
        <path id="Path_1883" data-name="Path 1883" d="M441.984,38.294a.574.574,0,0,0-.734-.346l-1.636.589a.574.574,0,0,0,.389,1.08l1.636-.589A.574.574,0,0,0,441.984,38.294Z" transform="translate(-439.233 -37.914)" fill="#095adb"/>
      </g>
    </g>
    <g id="Group_632" data-name="Group 632" transform="translate(-0.001 1.455)">
      <g id="Group_631" data-name="Group 631" transform="translate(0)">
        <path id="Path_1884" data-name="Path 1884" d="M2.4,38.536.768,37.947a.574.574,0,0,0-.389,1.08l1.636.589a.574.574,0,0,0,.389-1.08Z" transform="translate(0.001 -37.913)" fill="#095adb"/>
      </g>
    </g>
    <g id="Group_634" data-name="Group 634" transform="translate(16.806 7.148)">
      <g id="Group_633" data-name="Group 633">
        <path id="Path_1885" data-name="Path 1885" d="M441.638,187.314,440,186.725a.574.574,0,0,0-.389,1.08l1.636.589a.574.574,0,0,0,.389-1.08Z" transform="translate(-439.233 -186.691)" fill="#095adb"/>
      </g>
    </g>
    <g id="Group_636" data-name="Group 636" transform="translate(3.754 0.004)">
      <g id="Group_635" data-name="Group 635">
        <path id="Path_1886" data-name="Path 1886" d="M110.481,7.466V4.022a1.722,1.722,0,0,0-2.356-1.6,1.722,1.722,0,0,0-2.3-1.148,1.721,1.721,0,0,0-2.809-.83,1.721,1.721,0,0,0-2.87,1.282v.385C98.344,4.559,98.459,4.4,98.428,4.46a2.884,2.884,0,0,0-.018,2.529l1.74,5.162v6.87a.574.574,0,0,0,.574.574h8.035a.574.574,0,0,0,.574-.574V16.075h.574a.574.574,0,0,0,.574-.574v-2.3a1.724,1.724,0,0,0-1.024-1.573L110.464,7.6A.575.575,0,0,0,110.481,7.466Zm-2.3,10.982H101.3V16.075h6.888Zm1.148-3.52H101.3v-2.3h7.462a.575.575,0,0,1,.574.574Zm0-7.532-1.022,4.088h-7.175l-1.651-4.9a.574.574,0,0,0-.03-.073,1.731,1.731,0,0,1-.02-1.5l.715-.97V5.17a.574.574,0,1,0,1.148,0V1.726a.574.574,0,1,1,1.148,0V5.17a.574.574,0,1,0,1.148,0V1.726a.574.574,0,1,1,1.148,0V5.17a.574.574,0,1,0,1.148,0v-2.3a.574.574,0,0,1,1.148,0v2.3a.574.574,0,1,0,1.148,0V4.022a.574.574,0,1,1,1.148,0V7.395Z" transform="translate(-98.126 -0.004)" fill="#095adb"/>
      </g>
    </g>
  </g>
</svg>
