<svg xmlns="http://www.w3.org/2000/svg" width="55.961" height="58.519" viewBox="0 0 55.961 58.519">
  <g id="diamond" transform="translate(-11.187)">
    <path id="Path_1021" data-name="Path 1021" d="M244.429,5.143V1.714a1.714,1.714,0,1,0-3.429,0V5.143a1.714,1.714,0,1,0,3.429,0Z" transform="translate(-203.547)" fill="#095adb"/>
    <path id="Path_1022" data-name="Path 1022" d="M118.1,34.48a1.714,1.714,0,0,0,.829-2.278l-1.449-3.108a1.714,1.714,0,0,0-3.108,1.449l1.449,3.108A1.714,1.714,0,0,0,118.1,34.48Z" transform="translate(-91.249 -24.892)" fill="#095adb"/>
    <path id="Path_1023" data-name="Path 1023" d="M16.63,110.768,14,108.564a1.714,1.714,0,0,0-2.2,2.627l2.627,2.2a1.714,1.714,0,1,0,2.2-2.627Z" transform="translate(0 -95.801)" fill="#095adb"/>
    <path id="Path_1024" data-name="Path 1024" d="M358.371,33.651l1.449-3.108a1.714,1.714,0,0,0-3.108-1.449L355.263,32.2a1.714,1.714,0,0,0,3.108,1.449Z" transform="translate(-304.608 -24.892)" fill="#095adb"/>
    <path id="Path_1025" data-name="Path 1025" d="M453.487,108.776a1.714,1.714,0,0,0-2.415-.211l-2.627,2.2a1.714,1.714,0,1,0,2.2,2.627l2.627-2.2A1.714,1.714,0,0,0,453.487,108.776Z" transform="translate(-386.739 -95.801)" fill="#095adb"/>
    <path id="Path_1026" data-name="Path 1026" d="M39.594,151a1.756,1.756,0,0,0-1.443.778L31.3,162.05a1.722,1.722,0,0,0,.134,2.077l24,27.545a1.714,1.714,0,0,0,2.585,0l24-27.545a1.722,1.722,0,0,0,.134-2.077l-6.848-10.272A1.721,1.721,0,0,0,73.875,151Zm37.935,10.286H70.221l3.654-5.481Zm-26.946,0,6.148-6.148,6.148,6.148Zm13.96,3.429-7.813,20.834-7.813-20.834Zm-12.67,17.647L36.5,164.715h8.759Zm16.332-17.647h8.759L61.588,182.362Zm-1.455-4.405-5.881-5.881h9.8Zm-20.04,0-3.921-5.881h9.8Zm-3.47.977H35.933l3.654-5.481Z" transform="translate(-17.563 -133.742)" fill="#095adb"/>
  </g>
</svg>
