<svg id="discount" xmlns="http://www.w3.org/2000/svg" width="54.242" height="54.244" viewBox="0 0 54.242 54.244">
  <g id="Group_480" data-name="Group 480" transform="translate(16.95 6.781)">
    <g id="Group_479" data-name="Group 479">
      <path id="Path_1068" data-name="Path 1068" d="M165.085,64a5.085,5.085,0,1,0,5.085,5.085A5.092,5.092,0,0,0,165.085,64Zm0,6.781a1.7,1.7,0,1,1,1.7-1.7A1.7,1.7,0,0,1,165.085,70.781Z" transform="translate(-160 -64)" fill="#095adb"/>
    </g>
  </g>
  <g id="Group_482" data-name="Group 482" transform="translate(27.121 20.342)">
    <g id="Group_481" data-name="Group 481">
      <path id="Path_1069" data-name="Path 1069" d="M261.085,192a5.085,5.085,0,1,0,5.085,5.085A5.092,5.092,0,0,0,261.085,192Zm0,6.781a1.7,1.7,0,1,1,1.7-1.7A1.7,1.7,0,0,1,261.085,198.781Z" transform="translate(-256 -192)" fill="#095adb"/>
    </g>
  </g>
  <g id="Group_484" data-name="Group 484" transform="translate(16.95 6.783)">
    <g id="Group_483" data-name="Group 483">
      <path id="Path_1070" data-name="Path 1070" d="M179.728,64.416a1.7,1.7,0,0,0-2.39.217L160.386,84.974A1.7,1.7,0,0,0,163,87.144L179.948,66.8A1.7,1.7,0,0,0,179.728,64.416Z" transform="translate(-159.996 -64.025)" fill="#095adb"/>
    </g>
  </g>
  <g id="Group_486" data-name="Group 486">
    <g id="Group_485" data-name="Group 485">
      <path id="Path_1071" data-name="Path 1071" d="M54.134,28.2a1.688,1.688,0,0,0-1.576-1.075H44.082V1.7a1.7,1.7,0,0,0-1.7-1.7H11.875a1.7,1.7,0,0,0-1.7,1.7V27.122H1.7A1.694,1.694,0,0,0,.548,30.055L25.975,53.786a1.694,1.694,0,0,0,2.312,0L53.714,30.058A1.7,1.7,0,0,0,54.134,28.2Zm-27,22.033L6.006,30.512h5.869a1.7,1.7,0,0,0,1.7-1.7V3.39H40.692V28.817a1.7,1.7,0,0,0,1.7,1.7h5.869Z" transform="translate(-0.01)" fill="#095adb"/>
    </g>
  </g>
</svg>
