<svg xmlns="http://www.w3.org/2000/svg" width="68.081" height="68.081" viewBox="0 0 68.081 68.081">
  <g id="facebook" transform="translate(0.6 0.6)">
    <path id="Path_1103" data-name="Path 1103" d="M219.946,55.295h0c1.041,0,2.3-.005,3.882-.005,6.867,0,7.766.03,10.468.159a17.869,17.869,0,0,1,5.879,1.123,11.617,11.617,0,0,1,4.156,2.707l.013.013a11.435,11.435,0,0,1,2.718,4.174,17.779,17.779,0,0,1,1.119,5.871.98.98,0,0,0,.978.937h.044a.98.98,0,0,0,.936-1.022,19.628,19.628,0,0,0-1.247-6.486,13.37,13.37,0,0,0-3.171-4.867,13.581,13.581,0,0,0-4.847-3.157,19.712,19.712,0,0,0-6.488-1.249c-2.736-.13-3.645-.161-10.558-.161-1.581,0-2.846,0-3.889.005a.98.98,0,0,0,0,1.959Z" transform="translate(-190.364 -46.364)" fill="#009eff" stroke="#009eff" stroke-width="1.2"/>
    <path id="Path_1104" data-name="Path 1104" d="M439.612,201.434H439.6a.98.98,0,0,0-.972.988c.011,1.329.013,3.108.013,6.133,0,6.823-.028,7.728-.148,10.46a20.228,20.228,0,0,1-.569,4.16.98.98,0,1,0,1.9.488,22.146,22.146,0,0,0,.629-4.562c.122-2.767.15-3.682.15-10.546,0-3.03,0-4.813-.013-6.149A.979.979,0,0,0,439.612,201.434Z" transform="translate(-380.695 -175.121)" fill="#009eff" stroke="#009eff" stroke-width="1.2"/>
    <path id="Path_1105" data-name="Path 1105" d="M342.2,364.988H326.876l-5.169-3.932a.98.98,0,0,0-1.573.78V377.6a3,3,0,0,0,2.994,3h2.12a.98.98,0,1,0,0-1.959h-2.12a1.037,1.037,0,0,1-1.034-1.037V363.812l3.859,2.935a.979.979,0,0,0,.593.2H342.2a1.037,1.037,0,0,1,1.034,1.036v9.62a1.037,1.037,0,0,1-1.034,1.037H329.754a.98.98,0,1,0,0,1.959H342.2a3,3,0,0,0,2.994-3v-9.62A3,3,0,0,0,342.2,364.988Z" transform="translate(-278.316 -313.719)" fill="#009eff" stroke="#009eff" stroke-width="1.2"/>
    <path id="Path_1106" data-name="Path 1106" d="M361.925,464.016h13.055a.98.98,0,1,0,0-1.959H361.925a.98.98,0,0,0,0,1.959Z" transform="translate(-313.796 -401.7)" fill="#009eff" stroke="#009eff" stroke-width="1.2"/>
    <path id="Path_1107" data-name="Path 1107" d="M361.925,430h11.75a.98.98,0,0,0,0-1.959h-11.75a.98.98,0,0,0,0,1.959Z" transform="translate(-313.796 -372.13)" fill="#009eff" stroke="#009eff" stroke-width="1.2"/>
    <path id="Path_1108" data-name="Path 1108" d="M15.617,23.337a.98.98,0,0,0,1.61,0l2.1-3.021h3.472a3.262,3.262,0,0,0,3.258-3.259V3.259A3.262,3.262,0,0,0,22.794,0H10.371a.98.98,0,1,0,0,1.959H22.794a1.3,1.3,0,0,1,1.3,1.3v13.8a1.3,1.3,0,0,1-1.3,1.3H18.81a.98.98,0,0,0-.805.421L16.422,21.06,14.84,18.778a.98.98,0,0,0-.805-.421H3.258a1.3,1.3,0,0,1-1.3-1.3V3.259a1.3,1.3,0,0,1,1.3-1.3h2.6A.98.98,0,0,0,5.859,0h-2.6A3.262,3.262,0,0,0,0,3.259v13.8a3.262,3.262,0,0,0,3.258,3.259H13.522Z" fill="#009eff" stroke="#009eff" stroke-width="1.2"/>
    <path id="Path_1109" data-name="Path 1109" d="M63.1,50.3a.979.979,0,0,0,1.386,0l3.752-3.754a3.254,3.254,0,0,0-2.3-5.557h0A3.235,3.235,0,0,0,63.8,41.8a3.233,3.233,0,0,0-2.145-.808h0a3.254,3.254,0,0,0-2.3,5.557Zm-2.369-6.973a1.283,1.283,0,0,1,.914-.378h0a1.289,1.289,0,0,1,.917.381l.537.537a.98.98,0,0,0,1.386,0l.537-.537a1.29,1.29,0,0,1,.917-.381h0a1.284,1.284,0,0,1,.914.378,1.3,1.3,0,0,1,0,1.834L63.8,48.221l-3.059-3.06a1.3,1.3,0,0,1,0-1.834Z" transform="translate(-50.769 -35.635)" fill="#009eff" stroke="#009eff" stroke-width="1.2"/>
    <path id="Path_1110" data-name="Path 1110" d="M90.524,158.98a.98.98,0,0,0-.811-.43H83.787v-4.806a.965.965,0,0,1,0-.1,5.522,5.522,0,0,1,.953-.042l.3,0h3.546a.98.98,0,0,0,.98-.98v-5.6a.98.98,0,0,0-.98-.98H82.807a7.708,7.708,0,0,0-7.7,7.7v4.806H70.3a.98.98,0,0,0-.98.98v5.6a.98.98,0,0,0,.98.98h4.806v3.533a.98.98,0,0,0,1.959,0v-4.512a.98.98,0,0,0-.98-.98H71.281v-3.64h4.806a.98.98,0,0,0,.98-.98v-5.786a5.746,5.746,0,0,1,5.74-5.74h4.806v3.64H85.047l-.287,0a3.149,3.149,0,0,0-2.379.6,2.022,2.022,0,0,0-.553,1.5v5.786a.98.98,0,0,0,.98.98h5.459l-1.456,3.64h-4a.98.98,0,0,0-.98.98V184.9H80.093c-1.169,0-2.165,0-3.026,0V174.17a.98.98,0,0,0-1.959,0v10.717c-2.608-.017-3.619-.056-5.473-.138a17.876,17.876,0,0,1-5.879-1.123,11.619,11.619,0,0,1-4.156-2.708l-.011-.011a11.545,11.545,0,0,1-2.72-4.177,17.78,17.78,0,0,1-1.119-5.871c-.12-2.732-.148-3.637-.148-10.46,0-6.069.024-7.481.114-9.508a.98.98,0,1,0-1.957-.086c-.091,2.062-.116,3.488-.116,9.595,0,6.865.029,7.779.15,10.547a19.628,19.628,0,0,0,1.247,6.486,14.031,14.031,0,0,0,8.018,8.024,19.729,19.729,0,0,0,6.491,1.25c2.759.122,3.672.15,10.544.15,2.422,0,3.967,0,5.167-.012a.98.98,0,0,0-.007-1.959h-.007l-1.46.007V166.109h3.686a.979.979,0,0,0,.91-.616l2.24-5.6A.979.979,0,0,0,90.524,158.98Z" transform="translate(-46.635 -126.967)" fill="#009eff" stroke="#009eff" stroke-width="1.2"/>
  </g>
</svg>
