<svg id="fb-target" xmlns="http://www.w3.org/2000/svg" width="56.958" height="56.958" viewBox="0 0 56.958 56.958">
  <path id="Path_1055" data-name="Path 1055" d="M209.349,127.675a6.675,6.675,0,1,0-6.675,6.675A6.682,6.682,0,0,0,209.349,127.675Zm-6.675,3.337a3.337,3.337,0,1,1,3.337-3.337A3.341,3.341,0,0,1,202.675,131.012Z" transform="translate(-174.196 -107.539)" fill="#095adb"/>
  <path id="Path_1056" data-name="Path 1056" d="M189.343,241A8.353,8.353,0,0,0,181,249.343v8.343h16.687v-8.343A8.353,8.353,0,0,0,189.343,241Zm5.006,13.349H184.337v-5.006a5.006,5.006,0,0,1,10.012,0Z" transform="translate(-160.865 -214.19)" fill="#095adb"/>
  <path id="Path_1057" data-name="Path 1057" d="M30.148,3.5V0H26.81V3.5A25.015,25.015,0,0,0,3.5,26.81H0v3.337H3.5A25.015,25.015,0,0,0,26.81,53.453v3.5h3.337v-3.5A25.015,25.015,0,0,0,53.453,30.148h3.5V26.81h-3.5A25.015,25.015,0,0,0,30.148,3.5Zm0,46.6V46.834H26.81v3.274A21.728,21.728,0,0,1,6.849,30.148h3.274V26.81H6.849A21.728,21.728,0,0,1,26.81,6.849v3.274h3.337V6.849A21.728,21.728,0,0,1,50.108,26.81H46.834v3.336h3.274A21.729,21.729,0,0,1,30.148,50.108Z" transform="translate(0)" fill="#095adb"/>
  <line id="Line_44" data-name="Line 44" x1="54" y2="54" transform="translate(1.496 1.5)" fill="none" stroke="#f9f9f9" stroke-width="3"/>
</svg>
