<svg xmlns="http://www.w3.org/2000/svg" width="51.667" height="60.17" viewBox="0 0 51.667 60.17">
  <g id="growth2" transform="translate(0 0)">
    <path id="Path_1099" data-name="Path 1099" d="M11.98,337.465H1.763A1.763,1.763,0,0,0,0,339.228v16.986a1.763,1.763,0,0,0,1.763,1.763H11.981a1.763,1.763,0,0,0,1.763-1.763V339.228a1.763,1.763,0,0,0-1.763-1.763Zm-1.763,16.986H3.525v-13.46h6.693v13.46Zm0,0" transform="translate(0 -297.806)" fill="#095adb"/>
    <path id="Path_1100" data-name="Path 1100" d="M173.329,256.676H163.111a1.763,1.763,0,0,0-1.763,1.763v26.48a1.763,1.763,0,0,0,1.763,1.763h10.218a1.763,1.763,0,0,0,1.763-1.763v-26.48A1.763,1.763,0,0,0,173.329,256.676Zm-1.763,26.48h-6.693V260.2h6.693Zm0,0" transform="translate(-142.386 -226.511)" fill="#095adb"/>
    <path id="Path_1101" data-name="Path 1101" d="M334.676,134.66H324.458a1.763,1.763,0,0,0-1.763,1.763v40.819a1.763,1.763,0,0,0,1.763,1.763h10.218a1.763,1.763,0,0,0,1.763-1.763V136.423A1.763,1.763,0,0,0,334.676,134.66Zm-1.762,40.819h-6.693V138.185h6.693Zm0,0" transform="translate(-284.773 -118.834)" fill="#095adb"/>
    <path id="Path_1102" data-name="Path 1102" d="M2.741,22.163a1.756,1.756,0,0,0,.819-.2l18.411-9.682,7.328,3.8a1.761,1.761,0,0,0,1.67-.026L47.3,6.941,46.668,8.6a1.763,1.763,0,1,0,3.3,1.25L52.3,3.691a1.828,1.828,0,0,0,.109-.761,1.756,1.756,0,0,0-1.632-1.636L44.459.035a1.763,1.763,0,0,0-.689,3.458l1.822.363L30.08,12.511l-7.3-3.786a1.762,1.762,0,0,0-1.632.005L1.919,18.839a1.763,1.763,0,0,0,.822,3.324Zm0,0" transform="translate(-0.862 0)" fill="#095adb"/>
  </g>
</svg>
