<svg xmlns="http://www.w3.org/2000/svg" width="26.221" height="23.1" viewBox="0 0 26.221 23.1">
  <g id="handshake_2_" data-name="handshake (2)" transform="translate(0.254 -30.756)">
    <path id="Path_1887" data-name="Path 1887" d="M246.5,34.569a.5.5,0,0,0,.5-.5V31.508a.5.5,0,1,0-1,0v2.558A.5.5,0,0,0,246.5,34.569Z" transform="translate(-233.641)" fill="#095adb" stroke="#095adb" stroke-width="0.5"/>
    <path id="Path_1888" data-name="Path 1888" d="M154.043,63.658a.5.5,0,1,0,.85-.536L153.554,61a.5.5,0,1,0-.85.536Z" transform="translate(-144.962 -28.264)" fill="#095adb" stroke="#095adb" stroke-width="0.5"/>
    <path id="Path_1889" data-name="Path 1889" d="M312.981,63.816a.5.5,0,0,0,.693-.157l1.337-2.123a.5.5,0,1,0-.85-.535l-1.337,2.123A.5.5,0,0,0,312.981,63.816Z" transform="translate(-297.04 -28.265)" fill="#095adb" stroke="#095adb" stroke-width="0.5"/>
    <path id="Path_1890" data-name="Path 1890" d="M25.552,124.791l-.873-1.542a.5.5,0,0,0-.874.495l.872,1.541a.248.248,0,0,1,.022.19.237.237,0,0,1-.112.144l-1.345.745a.255.255,0,0,1-.341-.091l-.342-.6,0-.008-3.532-6.248a.245.245,0,0,1-.022-.188.235.235,0,0,1,.112-.143l1.346-.745a.25.25,0,0,1,.339.091l.787,1.391a.5.5,0,1,0,.874-.495l-.787-1.39a1.257,1.257,0,0,0-1.7-.476l-1.346.745a1.248,1.248,0,0,0-.507,1.649l-.742.215a2.92,2.92,0,0,1-.614.141h0a1.254,1.254,0,0,1-.381-.115c-.1-.039-.232-.088-.391-.143l-1.314-.459a3.011,3.011,0,0,0-1.53-.2l-2.241.2a3.027,3.027,0,0,0-2.032.721l-1.277-.37a1.247,1.247,0,0,0-.51-1.642l-1.346-.745a1.258,1.258,0,0,0-1.7.475L.163,124.79A1.249,1.249,0,0,0,.639,126.5l1.346.745a1.259,1.259,0,0,0,1.7-.475l.142-.252a2.359,2.359,0,0,1,.936.713A1.686,1.686,0,0,0,5.854,130a1.684,1.684,0,0,0,1.483,1.852A1.683,1.683,0,0,0,8.819,133.7a1.689,1.689,0,0,0,2.734,1.495l1.052-.841a1.694,1.694,0,0,0,.228-.22l.6.48a1.688,1.688,0,0,0,2.711-.994,1.679,1.679,0,0,0,.55.092,1.734,1.734,0,0,0,.191-.011,1.685,1.685,0,0,0,1.492-1.853A1.682,1.682,0,0,0,19.86,130a1.688,1.688,0,0,0,1.09-2.77,2.349,2.349,0,0,1,.935-.713l.142.252a1.26,1.26,0,0,0,1.7.475l1.345-.745a1.251,1.251,0,0,0,.479-1.707Zm-22.74,1.482a.254.254,0,0,1-.34.091l-1.346-.745a.236.236,0,0,1-.112-.143.246.246,0,0,1,.023-.19l3.878-6.858a.245.245,0,0,1,.215-.123.258.258,0,0,1,.125.032l1.345.745h0a.235.235,0,0,1,.112.143.245.245,0,0,1-.023.189Zm3.665,2.585a.684.684,0,0,1-.854-1.067l1.88-1.5a.687.687,0,0,1,.963.107.684.684,0,0,1-.107.959l-.009.008-1.873,1.5ZM7,130.6a.686.686,0,0,1,.107-.96h0l2.708-2.164a.686.686,0,0,1,.963.107.686.686,0,0,1-.108.961l-2.708,2.163A.686.686,0,0,1,7,130.6Zm1.942,2.1a.683.683,0,0,1-.352-1.212h0l1.874-1.5.007,0a.686.686,0,0,1,.962.107.686.686,0,0,1-.108.961l-1.88,1.5A.682.682,0,0,1,8.939,132.705Zm3.291.408a.678.678,0,0,1-.252.458l-1.052.842a.686.686,0,0,1-.963-.107.686.686,0,0,1,.106-.96h0l1.051-.84h0a.687.687,0,0,1,.963.107A.676.676,0,0,1,12.229,133.113ZM20.2,128.75a.689.689,0,0,1-.962.107h0l-1.344-1.074a.5.5,0,0,0-.627.785l1.343,1.073a.684.684,0,1,1-.855,1.067L16.3,129.545a.5.5,0,1,0-.626.785l1.457,1.163a.685.685,0,0,1-.856,1.069l-.725-.58,0,0-.613-.49-.115-.092a.5.5,0,0,0-.627.784l.729.583a.684.684,0,0,1-.857,1.067l-.827-.661a1.681,1.681,0,0,0-.966-1.66A1.685,1.685,0,0,0,11.612,129a1.688,1.688,0,0,0-2.033-2.539,1.675,1.675,0,0,0-.33-.691,1.693,1.693,0,0,0-2.374-.265l-1.345,1.075a3.309,3.309,0,0,0-1.206-.939l2.766-4.893,1.473.427a1.643,1.643,0,0,0,.041.249c.357,1.466,1.706,2.149,3.522,1.783,1.53-.308,2.16.151,3.415,1.064.13.095.265.193.407.295.9.647,1.867,1.408,2.513,1.924l1.63,1.3a.686.686,0,0,1,.106.961Zm-.016-2.174-1.094-.874c-.655-.523-1.633-1.294-2.555-1.956-.14-.1-.273-.2-.4-.29-1.3-.947-2.241-1.632-4.2-1.237-.6.121-2.032.263-2.348-1.036-.044-.183,0-.246.02-.273.067-.094.337-.321,1.395-.415l2.243-.2a2.057,2.057,0,0,1,1.107.145l1.314.459c.146.051.263.1.366.134a1.924,1.924,0,0,0,1.632,0l.969-.281,2.763,4.886A3.3,3.3,0,0,0,20.183,126.576Z" transform="translate(0 -81.961)" fill="#095adb" stroke="#095adb" stroke-width="0.5"/>
    <path id="Path_1891" data-name="Path 1891" d="M451.072,192.589a.5.5,0,1,0-.5-.5h0A.5.5,0,0,0,451.072,192.589Z" transform="translate(-427.941 -152.513)" fill="#095adb" stroke="#095adb" stroke-width="0.5"/>
  </g>
</svg>
