<svg xmlns="http://www.w3.org/2000/svg" width="69.671" height="55.241" viewBox="0 0 69.671 55.241">
  <g id="handshake" transform="translate(0 -53.024)">
    <g id="Group_469" data-name="Group 469" transform="translate(0 53.024)">
      <path id="Path_1061" data-name="Path 1061" d="M69.376,73.872,57.394,54.048a2.041,2.041,0,0,0-2.568-.813L47.5,56.453,36.209,53.108a2.041,2.041,0,0,0-1.568.171l-13,7.192-7.493-4.8a2.041,2.041,0,0,0-2.847.663l-11,18.2a2.041,2.041,0,0,0,.649,2.777l4.63,2.953-.936,1.249A5.716,5.716,0,0,0,9.2,90.661c.11,0,.22-.005.33-.012a5.7,5.7,0,0,0,5.555,4.415q.161,0,.322-.009a5.716,5.716,0,0,0,5.553,4.419c.11,0,.22-.005.33-.012a5.714,5.714,0,0,0,10.136,2.129l.184-.246,8.163,5.81a5.991,5.991,0,0,0,9.345-3.649,6.007,6.007,0,0,0,6-2.378,5.908,5.908,0,0,0,1.116-3.456,5.976,5.976,0,0,0,4.15-2.442,5.9,5.9,0,0,0,1.081-2.821,6,6,0,0,0,5.018-2.483A5.949,5.949,0,0,0,65.1,81.6l-1.981-1.41,5.6-3.535A2.041,2.041,0,0,0,69.376,73.872ZM10.518,85.924A1.633,1.633,0,1,1,7.9,83.966l2.676-3.572a1.633,1.633,0,0,1,2.613,1.958Zm5.88,4.407a1.633,1.633,0,1,1-2.613-1.958L16.461,84.8h0l1.883-2.513a1.633,1.633,0,1,1,2.613,1.958Zm5.88,4.406a1.633,1.633,0,1,1-2.613-1.958l4.56-6.085h0l.831-1.108a1.623,1.623,0,0,1,1.075-.637,1.651,1.651,0,0,1,.235-.017,1.633,1.633,0,0,1,1.3,2.612Zm8.556.835-2.676,3.572a1.633,1.633,0,0,1-2.613-1.959l2.676-3.572a1.633,1.633,0,0,1,2.613,1.959ZM63.5,86.148a1.851,1.851,0,0,1-.327,1.394,1.918,1.918,0,0,1-2.663.436L59.03,86.926h0l-8.24-5.858a2.041,2.041,0,1,0-2.365,3.327l8.224,5.847a1.874,1.874,0,0,1,.424,2.6,1.918,1.918,0,0,1-2.663.436l-.646-.46h0L47.4,88.3a2.041,2.041,0,0,0-2.365,3.327l6.348,4.513a1.874,1.874,0,0,1,.425,2.605,1.918,1.918,0,0,1-2.663.436l-2.264-1.611h0l-3.426-2.436a2.041,2.041,0,0,0-2.365,3.327l3.367,2.394a1.862,1.862,0,0,1,.349,2.542,1.918,1.918,0,0,1-2.663.436l-8.081-5.752.043-.058a5.716,5.716,0,0,0-2.67-8.817,5.715,5.715,0,0,0-5.879-8.3,5.812,5.812,0,0,0-.641.13,5.721,5.721,0,0,0-8.176-2.689,5.711,5.711,0,0,0-8.6-1.286L4.818,74.947l8.889-14.7,3.868,2.476-2.559,1.415a2.041,2.041,0,0,0-1.049,1.649,8.131,8.131,0,0,0,.856,4.21,8.228,8.228,0,0,0,11,3.631L35.3,68.89l4.8.071,18.175,12.8h0l4.45,3.168A1.865,1.865,0,0,1,63.5,86.148Zm-3.98-8.513L41.942,65.26a2.041,2.041,0,0,0-1.145-.372L34.865,64.8h-.03a2.041,2.041,0,0,0-.912.215L24,69.97a4.138,4.138,0,0,1-5.535-1.819,4.064,4.064,0,0,1-.363-1.062l17.764-9.825,11.19,3.314a2.041,2.041,0,0,0,1.4-.088l6.367-2.8,10.02,16.577Z" transform="translate(0 -53.024)" fill="#095adb"/>
    </g>
  </g>
</svg>
