<svg xmlns="http://www.w3.org/2000/svg" width="63.654" height="63.619" viewBox="0 0 63.654 63.619">
  <g id="handle" transform="translate(0.5 0.5)">
    <path id="Path_1254" data-name="Path 1254" d="M9.132,38.091H1.3a1.305,1.305,0,0,1-1.3-1.3V13.3A1.305,1.305,0,0,1,1.3,12c8.874,0,13.562,2.99,13.758,3.118a1.3,1.3,0,0,1,.551,1.414L10.395,37.108a1.3,1.3,0,0,1-1.263.984ZM2.609,35.482H8.117l4.717-18.6A26.1,26.1,0,0,0,2.609,14.633Z" transform="translate(0 19.31)" fill="#095adb" stroke="#095adb" stroke-width="1"/>
    <path id="Path_1255" data-name="Path 1255" d="M28.641,34.459c-6.158,0-18.063-5.177-24.612-8.266A1.3,1.3,0,0,1,5.14,23.835c5.114,2.411,17.64,8.015,23.5,8.015,6.348,0,21.3-7.454,25.606-9.669a5.625,5.625,0,0,0-4.733-2.072c-2.408,0-5.461.963-8.414,1.9-3.139.989-6.387,2.017-9.2,2.017-5.385,0-12.539-2.578-12.84-2.687a1.3,1.3,0,1,1,.892-2.453c.068.026,7.024,2.531,11.947,2.531,2.408,0,5.461-.963,8.414-1.9,3.139-.989,6.387-2.017,9.2-2.017,6.09,0,7.694,4.61,7.762,4.806a1.309,1.309,0,0,1-.624,1.565C55.841,24.3,36.7,34.459,28.641,34.459Z" transform="translate(5.278 28.16)" fill="#095adb" stroke="#095adb" stroke-width="1"/>
    <path id="Path_1256" data-name="Path 1256" d="M35.295,28.873a1.305,1.305,0,0,1-1.3-1.3v-1.3a3.862,3.862,0,0,0-2.985-3.788L5.82,16.393a1.306,1.306,0,0,1,.613-2.539l25.176,6.079a6.463,6.463,0,0,1,4.991,6.33v1.3A1.305,1.305,0,0,1,35.295,28.873Z" transform="translate(7.756 22.24)" fill="#095adb" stroke="#095adb" stroke-width="1"/>
    <path id="Path_1257" data-name="Path 1257" d="M8.3,26.482a1.305,1.305,0,0,1-1.3-1.3V9.523A6.529,6.529,0,0,1,13.523,3h5.218a1.3,1.3,0,0,1,0,2.609H13.523A3.918,3.918,0,0,0,9.609,9.523V25.178A1.305,1.305,0,0,1,8.3,26.482Z" transform="translate(11.264 4.827)" fill="#095adb" stroke="#095adb" stroke-width="1"/>
    <path id="Path_1258" data-name="Path 1258" d="M30.568,15.655H14.914A3.918,3.918,0,0,1,11,11.741V6.523a1.305,1.305,0,0,1,1.3-1.3h4.044a6.524,6.524,0,0,1,12.785,0h4.044a1.305,1.305,0,0,1,1.3,1.3v5.218A3.918,3.918,0,0,1,30.568,15.655ZM13.609,7.827v3.914a1.308,1.308,0,0,0,1.3,1.3H30.568a1.308,1.308,0,0,0,1.3-1.3V7.827H27.959a1.305,1.305,0,0,1-1.3-1.3,3.914,3.914,0,0,0-7.827,0,1.305,1.305,0,0,1-1.3,1.3Z" transform="translate(17.7)" fill="#095adb" stroke="#095adb" stroke-width="1"/>
    <path id="Path_1259" data-name="Path 1259" d="M30.741,36.919a1.305,1.305,0,0,1-1.3-1.3V9.523a3.918,3.918,0,0,0-3.914-3.914H20.3A1.3,1.3,0,0,1,20.3,3h5.218a6.529,6.529,0,0,1,6.523,6.523V35.614A1.305,1.305,0,0,1,30.741,36.919Z" transform="translate(30.573 4.827)" fill="#095adb" stroke="#095adb" stroke-width="1"/>
    <path id="Path_1260" data-name="Path 1260" d="M37.4,10.609H11.3A1.3,1.3,0,0,1,11.3,8H37.4a1.3,1.3,0,0,1,0,2.609Z" transform="translate(16.091 12.873)" fill="#095adb" stroke="#095adb" stroke-width="1"/>
    <path id="Path_1261" data-name="Path 1261" d="M37.4,13.609H11.3A1.3,1.3,0,0,1,11.3,11H37.4a1.3,1.3,0,0,1,0,2.609Z" transform="translate(16.091 17.7)" fill="#095adb" stroke="#095adb" stroke-width="1"/>
  </g>
</svg>
