<svg xmlns="http://www.w3.org/2000/svg" width="78.792" height="52.273" viewBox="0 0 78.792 52.273">
  <g id="handshake_1_" data-name="handshake (1)" transform="translate(-17.829 -91.128)">
    <g id="Group_557" data-name="Group 557" transform="translate(18.329 91.628)">
      <path id="Path_1244" data-name="Path 1244" d="M77.792,100.5a5.466,5.466,0,0,0-1.117-3.366l-6.164-7.887a5.3,5.3,0,0,0-4.173-1.981,5.139,5.139,0,0,0-2.726.764L57.6,91.773a5.484,5.484,0,0,1-2.762.673,5.008,5.008,0,0,1-2.118-.416l-5.885-2.851a7.089,7.089,0,0,0-3.072-.646,7.653,7.653,0,0,0-4.32,1.245l-.687.482L36.42,89.1a8.817,8.817,0,0,0-3.833-.788,9.171,9.171,0,0,0-3.518.645L25.06,90.663a7.329,7.329,0,0,1-2.721.463,7.326,7.326,0,0,1-2.719-.463l-4.012-1.711a5.84,5.84,0,0,0-2.29-.446,6.973,6.973,0,0,0-2.605.511,5.924,5.924,0,0,0-2.2,1.512L1.21,98.709a4.744,4.744,0,0,0,.463,6.781L8.488,111.3l-3.233,3.372A4.816,4.816,0,0,0,5.42,121.5l.656.623a4.809,4.809,0,0,0,2.137,1.158,4.762,4.762,0,0,0,.9,5.784h0l.658.626a4.878,4.878,0,0,0,5.237.948,4.766,4.766,0,0,0,1.34,2.334l.658.626a4.868,4.868,0,0,0,6.032.518,4.783,4.783,0,0,0,1.26,2.071l.658.626a4.875,4.875,0,0,0,6.854-.163l2.857-2.983,3.882,3.592a4.871,4.871,0,0,0,6.849-.247l.62-.664a4.78,4.78,0,0,0,1.087-1.964l1.5,1.388a4.879,4.879,0,0,0,6.853-.253l.616-.663a4.764,4.764,0,0,0,1.236-2.663,4.745,4.745,0,0,0,4.758-1.366l.618-.663a4.8,4.8,0,0,0,1.291-3.283,4.925,4.925,0,0,0-.133-1.082,4.8,4.8,0,0,0,2.907-1.472l.62-.664a4.823,4.823,0,0,0-.252-6.821l-1.159-1.07L76.419,104.2A5.506,5.506,0,0,0,77.792,100.5ZM9.422,120.817a2.2,2.2,0,0,1-1.52-.6l-.657-.623a2.193,2.193,0,0,1-.076-3.1l6.621-6.909a2.222,2.222,0,0,1,3.117-.074l.654.624a4.149,4.149,0,0,1,.679,1.589,2.182,2.182,0,0,1-.392,1.24L10.7,120.41A2.23,2.23,0,0,1,9.422,120.817Zm5.288,6.891a2.223,2.223,0,0,1-3.115.073l-.658-.625h0a2.2,2.2,0,0,1-.074-3.1s8.825-9.187,8.9-9.276a2.21,2.21,0,0,1,3.046-.015l.658.626a2.2,2.2,0,0,1,.074,3.1Zm7.233,3.906a2.219,2.219,0,0,1-3.114.074l-.66-.625a2.179,2.179,0,0,1-.192-2.953l6.146-6.415a2.2,2.2,0,0,1,2.992.03l.66.626a2.195,2.195,0,0,1,.074,3.1Zm11.678-.677-3.729,3.892a2.221,2.221,0,0,1-3.115.073l-.658-.625a2.195,2.195,0,0,1-.074-3.1l3.728-3.892a2.223,2.223,0,0,1,3.117-.073l.66.625a2.2,2.2,0,0,1,.072,3.1Zm32.4-10.558a2.171,2.171,0,0,1-.587,1.491l-.618.663a2.222,2.222,0,0,1-3.114.113l-10.413-9.63-1.8,1.928L60.634,125.27a2.194,2.194,0,0,1,.114,3.1l-.616.663a2.221,2.221,0,0,1-3.112.114L46.6,119.519l-1.8,1.928,9.244,8.548a2.191,2.191,0,0,1,.09,3.069l-.618.663a2.224,2.224,0,0,1-3.116.115l-9.225-8.517h0l0,0-1.8,1.931,0,0,.034.033,4.62,4.264a2.171,2.171,0,0,1,.04,3l-.618.664a2.216,2.216,0,0,1-3.109.112l-4.023-3.725a4.749,4.749,0,0,0-.953-5.672l-.66-.626a4.846,4.846,0,0,0-3.342-1.328c-.093,0-.186.021-.277.027,0-.022.005-.045.005-.067,0-1.269-1.5-3.494-1.5-3.494l-.658-.624a4.83,4.83,0,0,0-2.44-1.243,4.754,4.754,0,0,0-1.212-5.09l-.658-.626a4.856,4.856,0,0,0-3.344-1.329c-.14,0-.277.028-.416.041a4.8,4.8,0,0,0-1.483-3.342h0l-.656-.623a4.872,4.872,0,0,0-6.854.161L10.319,109.4,3.4,103.5a2.122,2.122,0,0,1-.206-3.034l7.305-8.181a3.333,3.333,0,0,1,1.221-.824,4.347,4.347,0,0,1,1.605-.316,3.2,3.2,0,0,1,1.248.234l4.011,1.711a9.867,9.867,0,0,0,3.762.676,9.868,9.868,0,0,0,3.762-.676l4.009-1.711a6.567,6.567,0,0,1,2.478-.433,6.292,6.292,0,0,1,2.648.51l1.07.534-4.088,2.874a4.722,4.722,0,0,0-1.078,6.7l0,0,.54.726a5.278,5.278,0,0,0,4.223,2.068,5.128,5.128,0,0,0,2.641-.72l2.445-1.468a4.027,4.027,0,0,1,2.03-.494,4.228,4.228,0,0,1,2.391.673l6.764,4.849a67.558,67.558,0,0,1,5.316,4.338l7.829,7.239A2.181,2.181,0,0,1,66.021,120.379Zm8.435-17.934-10.43,11.533L59.29,109.6a69.675,69.675,0,0,0-5.57-4.544l-6.762-4.849a6.835,6.835,0,0,0-3.938-1.169,6.658,6.658,0,0,0-3.4.872l-2.443,1.468a2.481,2.481,0,0,1-1.276.341,2.637,2.637,0,0,1-2.1-1l-.538-.725,0,0a2.095,2.095,0,0,1,.48-2.983l7.229-5.079a5.088,5.088,0,0,1,2.793-.762,4.478,4.478,0,0,1,1.915.381L51.566,94.4a7.6,7.6,0,0,0,3.275.682A8.052,8.052,0,0,0,59,94.006l6.012-3.74A2.5,2.5,0,0,1,66.34,89.9a2.667,2.667,0,0,1,2.085.966l6.164,7.887a2.87,2.87,0,0,1,.561,1.749A2.924,2.924,0,0,1,74.456,102.445Z" transform="translate(0 -87.27)" fill="#095adb" stroke="#095adb" stroke-width="1"/>
    </g>
  </g>
</svg>
