<svg xmlns="http://www.w3.org/2000/svg" width="19.196" height="19.195" viewBox="0 0 19.196 19.195">
  <g id="happy_1_" data-name="happy (1)" transform="translate(0.15 0.15)">
    <g id="Group_639" data-name="Group 639" transform="translate(0 0)">
      <g id="Group_638" data-name="Group 638">
        <path id="Path_1893" data-name="Path 1893" d="M16.128,2.767A9.448,9.448,0,1,0,2.767,16.128,9.448,9.448,0,1,0,16.128,2.767Zm-6.681,15a8.323,8.323,0,1,1,8.323-8.323A8.332,8.332,0,0,1,9.448,17.771Z" transform="translate(0 0)" fill="#095adb" stroke="#095adb" stroke-width="0.3"/>
      </g>
    </g>
    <g id="Group_641" data-name="Group 641" transform="translate(3.899 6.262)">
      <g id="Group_640" data-name="Group 640">
        <path id="Path_1894" data-name="Path 1894" d="M109.155,170.371a2.365,2.365,0,0,0-3.34,0,.562.562,0,0,0,.8.8,1.239,1.239,0,0,1,1.75,0,.562.562,0,0,0,.8-.8Z" transform="translate(-105.65 -169.681)" fill="#095adb" stroke="#095adb" stroke-width="0.3"/>
      </g>
    </g>
    <g id="Group_643" data-name="Group 643" transform="translate(11.327 6.262)">
      <g id="Group_642" data-name="Group 642">
        <path id="Path_1895" data-name="Path 1895" d="M310.417,170.371a2.365,2.365,0,0,0-3.34,0,.562.562,0,0,0,.8.8,1.239,1.239,0,0,1,1.75,0,.562.562,0,0,0,.8-.8Z" transform="translate(-306.912 -169.681)" fill="#095adb" stroke="#095adb" stroke-width="0.3"/>
      </g>
    </g>
    <g id="Group_645" data-name="Group 645" transform="translate(3.899 9.86)">
      <g id="Group_644" data-name="Group 644">
        <path id="Path_1896" data-name="Path 1896" d="M116.186,267.175h-9.973a.562.562,0,0,0-.562.562,5.549,5.549,0,0,0,11.1,0A.562.562,0,0,0,116.186,267.175Zm-4.986,4.986a4.43,4.43,0,0,1-4.388-3.862h8.777A4.431,4.431,0,0,1,111.2,272.161Z" transform="translate(-105.651 -267.175)" fill="#095adb" stroke="#095adb" stroke-width="0.3"/>
      </g>
    </g>
  </g>
</svg>
