<svg xmlns="http://www.w3.org/2000/svg" width="59.239" height="59.156" viewBox="0 0 59.239 59.156">
  <path id="human-resources" d="M53.582,49.215a7.519,7.519,0,1,0-12.668-1.333,16.043,16.043,0,0,0-4.281-3.067,9.719,9.719,0,1,0-14.029,0,16.036,16.036,0,0,0-4.281,3.067A7.522,7.522,0,1,0,5.656,49.215,11.576,11.576,0,0,0,0,59.156H4.628a6.943,6.943,0,0,1,10.24-6.109,15.876,15.876,0,0,0-1.216,6.109H18.28a11.339,11.339,0,1,1,22.677,0h4.628a15.876,15.876,0,0,0-1.216-6.109,6.943,6.943,0,0,1,10.24,6.109h4.628A11.576,11.576,0,0,0,53.582,49.215ZM11.57,41.685a2.893,2.893,0,1,1-2.893,2.893A2.9,2.9,0,0,1,11.57,41.685ZM24.528,38.1a5.091,5.091,0,1,1,5.091,5.091A5.1,5.1,0,0,1,24.528,38.1Zm23.14,3.587a2.893,2.893,0,1,1-2.893,2.893A2.9,2.9,0,0,1,47.668,41.685ZM24.314,11.851,21.041,8.578,29.619,0,38.2,8.578l-3.273,3.273L31.933,8.859V23.752H27.305V8.859Zm18.049,11.57L39.09,20.148l8.579-8.578,8.579,8.578-3.273,3.273L49.983,20.43v12H45.355v-12Zm-36.1,0L2.991,20.148,11.57,11.57l8.579,8.578-3.273,3.273L13.884,20.43v12H9.256v-12Zm0,0" transform="translate(0 0)" fill="#095adb"/>
</svg>
