<svg xmlns="http://www.w3.org/2000/svg" width="50.565" height="50.495" viewBox="0 0 50.565 50.495">
  <path id="human-resources_1_" data-name="human-resources (1)" d="M45.737,42.01a6.418,6.418,0,1,0-10.813-1.138,13.694,13.694,0,0,0-3.654-2.618,8.3,8.3,0,1,0-11.975,0,13.688,13.688,0,0,0-3.654,2.618A6.42,6.42,0,1,0,4.828,42.01,9.881,9.881,0,0,0,0,50.495H3.95a5.926,5.926,0,0,1,8.741-5.215,13.552,13.552,0,0,0-1.038,5.215H15.6a9.679,9.679,0,0,1,19.357,0h3.95a13.552,13.552,0,0,0-1.038-5.215,5.926,5.926,0,0,1,8.741,5.215h3.95A9.881,9.881,0,0,0,45.737,42.01ZM9.876,35.582a2.469,2.469,0,1,1-2.469,2.469A2.472,2.472,0,0,1,9.876,35.582Zm11.061-3.062a4.345,4.345,0,1,1,4.345,4.345A4.35,4.35,0,0,1,20.937,32.521Zm19.752,3.062a2.469,2.469,0,1,1-2.469,2.469A2.472,2.472,0,0,1,40.689,35.582ZM20.754,10.116,17.96,7.322,25.282,0l7.323,7.322-2.793,2.793L27.258,7.562V20.274h-3.95V7.562ZM36.16,19.992,33.367,17.2l7.323-7.322L48.012,17.2l-2.793,2.793-2.554-2.554V27.681h-3.95V17.438Zm-30.813,0L2.553,17.2,9.876,9.876,17.2,17.2,14.4,19.992l-2.554-2.554V27.681H7.9V17.438Zm0,0" transform="translate(0 0)" fill="#009eff"/>
</svg>
