<svg xmlns="http://www.w3.org/2000/svg" width="53.692" height="57.874" viewBox="0 0 53.692 57.874">
  <g id="idea" transform="translate(-18.5)">
    <path id="Path_1124" data-name="Path 1124" d="M125.717,90a16.748,16.748,0,0,0-16.469,16.59,16.537,16.537,0,0,0,6.09,12.842,3.726,3.726,0,0,1,1.368,2.5c-.049.289-.015-.044-.025,7.177a1.7,1.7,0,0,0,1.7,1.7H119v.057a6.839,6.839,0,1,0,13.677,0v-.057h.622a1.7,1.7,0,0,0,1.7-1.7c-.011-7.193.026-6.905-.03-7.208a3.418,3.418,0,0,1,1.26-2.38A16.589,16.589,0,0,0,125.717,90Zm5.884,33.91v3.5h-11.53v-3.5Zm-2.317,6.952a3.448,3.448,0,1,1-6.9,0v-.057h6.9ZM134.1,116.88a6.774,6.774,0,0,0-2.33,3.64H119.884a7.143,7.143,0,0,0-2.4-3.712,13.158,13.158,0,0,1-4.846-10.218,13.393,13.393,0,0,1,13.1-13.2h.1A13.2,13.2,0,0,1,134.1,116.88Z" transform="translate(-80.49 -79.827)" fill="#095adb"/>
    <path id="Path_1125" data-name="Path 1125" d="M196.768,203.34l-3.821,2.965v-1.625a1.7,1.7,0,0,0-2.735-1.34l-6.556,5.087a1.7,1.7,0,1,0,2.079,2.679l3.821-2.965v1.625a1.7,1.7,0,0,0,2.735,1.34l6.556-5.087a1.7,1.7,0,1,0-2.079-2.679Z" transform="translate(-145.905 -180.037)" fill="#095adb"/>
    <path id="Path_1126" data-name="Path 1126" d="M242.7,6.9a1.7,1.7,0,0,0,1.7-1.7V1.7A1.7,1.7,0,1,0,241,1.7V5.2A1.7,1.7,0,0,0,242.7,6.9Z" transform="translate(-197.35 0)" fill="#095adb"/>
    <path id="Path_1127" data-name="Path 1127" d="M86.643,70.541a1.7,1.7,0,0,0,2.4-2.4l-2.478-2.478a1.7,1.7,0,1,0-2.4,2.4Z" transform="translate(-57.802 -57.802)" fill="#095adb"/>
    <path id="Path_1128" data-name="Path 1128" d="M25.4,224.2a1.7,1.7,0,0,0-1.7-1.7H20.2a1.7,1.7,0,1,0,0,3.391h3.5A1.7,1.7,0,0,0,25.4,224.2Z" transform="translate(0 -197.35)" fill="#095adb"/>
    <path id="Path_1129" data-name="Path 1129" d="M437.7,222.5h-3.5a1.7,1.7,0,0,0,0,3.391h3.5a1.7,1.7,0,1,0,0-3.391Z" transform="translate(-367.203 -197.35)" fill="#095adb"/>
    <path id="Path_1130" data-name="Path 1130" d="M423.5,297.25l-3.237-1.341a1.7,1.7,0,0,0-1.3,3.133l3.237,1.341a1.7,1.7,0,1,0,1.3-3.133Z" transform="translate(-354.27 -262.346)" fill="#095adb"/>
    <path id="Path_1131" data-name="Path 1131" d="M157.32,22.515a1.7,1.7,0,1,0,3.133-1.3l-1.341-3.237a1.7,1.7,0,0,0-3.133,1.3Z" transform="translate(-121.824 -15.019)" fill="#095adb"/>
    <path id="Path_1132" data-name="Path 1132" d="M41.015,138.819l-3.237-1.341a1.7,1.7,0,1,0-1.3,3.133l3.237,1.341a1.7,1.7,0,0,0,1.3-3.133Z" transform="translate(-15.018 -121.824)" fill="#095adb"/>
    <path id="Path_1133" data-name="Path 1133" d="M379.306,70.541l2.478-2.478a1.7,1.7,0,0,0-2.4-2.4l-2.478,2.478a1.7,1.7,0,0,0,2.4,2.4Z" transform="translate(-317.455 -57.802)" fill="#095adb"/>
    <path id="Path_1134" data-name="Path 1134" d="M315.327,23.434a1.7,1.7,0,0,0,2.215-.918l1.341-3.237a1.7,1.7,0,0,0-3.133-1.3l-1.341,3.237A1.7,1.7,0,0,0,315.327,23.434Z" transform="translate(-262.346 -15.02)" fill="#095adb"/>
    <path id="Path_1135" data-name="Path 1135" d="M39.718,295.909,36.48,297.25a1.7,1.7,0,0,0,1.3,3.133l3.237-1.341a1.7,1.7,0,0,0-1.3-3.133Z" transform="translate(-15.019 -262.346)" fill="#095adb"/>
    <path id="Path_1136" data-name="Path 1136" d="M418.048,141.035a1.7,1.7,0,0,0,2.215.918l3.237-1.341a1.7,1.7,0,1,0-1.3-3.133l-3.237,1.341A1.7,1.7,0,0,0,418.048,141.035Z" transform="translate(-354.27 -121.824)" fill="#095adb"/>
  </g>
</svg>
