<svg xmlns="http://www.w3.org/2000/svg" width="27.451" height="20.91" viewBox="0 0 27.451 20.91">
  <path id="increase" d="M26.647,66.362H23.43a.8.8,0,1,0,0,1.608h1.275l-3.919,3.919a5.649,5.649,0,0,0-2.9-3.812,4.021,4.021,0,1,0-5.22,0,5.656,5.656,0,0,0-2.8,3.432q-.151-.173-.317-.335a5.634,5.634,0,0,0-1.311-.954,4.021,4.021,0,1,0-5.222,0A5.635,5.635,0,0,0,0,75.208v5.9a.8.8,0,0,0,.8.8H7.345a.8.8,0,0,0,.569-.236l5.865-5.865,2.112,2.112a.8.8,0,0,0,1.137,0l8.814-8.814v1.275a.8.8,0,0,0,1.608,0V67.166a.8.8,0,0,0-.8-.8Zm-13.779-1.34a2.413,2.413,0,1,1,2.413,2.413A2.415,2.415,0,0,1,12.868,65.021ZM3.217,67.166A2.413,2.413,0,1,1,5.63,69.579,2.415,2.415,0,0,1,3.217,67.166ZM7.012,80.3h-5.4V75.208a4.019,4.019,0,0,1,8.036-.12.825.825,0,0,0,.007.084v2.491Zm9.448-4.086L14.348,74.1a.8.8,0,0,0-1.137,0l-1.951,1.951V73.064a4.021,4.021,0,0,1,8.042,0v.31Z" transform="translate(0 -61)" fill="#095adb"/>
</svg>
