<svg xmlns="http://www.w3.org/2000/svg" width="58" height="31.266" viewBox="0 0 58 31.266">
  <g id="infinity" transform="translate(0 -118)">
    <g id="Group_532" data-name="Group 532" transform="translate(0 118)">
      <path id="Path_1220" data-name="Path 1220" d="M54.084,122.681A13.9,13.9,0,0,0,43.5,118c-5.13,0-8.991,2.955-11.7,6.233a37.617,37.617,0,0,1,2.413,4.317c2.078-2.994,5.191-6.019,9.283-6.019,5.776,0,9.969,4.669,9.969,11.1s-4.192,11.1-9.969,11.1c-8.258,0-12.313-11.706-12.352-11.821l-.011-.033C30.924,132.273,25.774,118,14.5,118a13.9,13.9,0,0,0-10.584,4.681,17.272,17.272,0,0,0,0,21.9A13.9,13.9,0,0,0,14.5,149.266c5.172,0,9.013-2.881,11.7-6.112a36.067,36.067,0,0,1-2.4-4.338c-2.051,2.958-5.14,5.918-9.293,5.918-5.776,0-9.969-4.669-9.969-11.1s4.192-11.1,9.969-11.1c7.97,0,12.224,11.471,12.36,11.845.3.887,5.239,14.89,16.64,14.89a13.9,13.9,0,0,0,10.584-4.681,17.272,17.272,0,0,0,0-21.9Z" transform="translate(0 -118)" fill="#095adb"/>
    </g>
  </g>
</svg>
