<svg xmlns="http://www.w3.org/2000/svg" width="24.732" height="13.332" viewBox="0 0 24.732 13.332">
  <g id="infinity_1_" data-name="infinity (1)" transform="translate(0 -118)">
    <g id="Group_622" data-name="Group 622" transform="translate(0 118)">
      <path id="Path_1872" data-name="Path 1872" d="M23.063,120a5.926,5.926,0,0,0-4.513-2,6.507,6.507,0,0,0-4.988,2.658,16.041,16.041,0,0,1,1.029,1.841c.886-1.277,2.213-2.566,3.959-2.566,2.463,0,4.251,1.991,4.251,4.734s-1.788,4.734-4.251,4.734c-3.521,0-5.25-4.992-5.267-5.041l0-.014c-.091-.259-2.287-6.346-7.094-6.346a5.926,5.926,0,0,0-4.513,2,7.365,7.365,0,0,0,0,9.34,5.926,5.926,0,0,0,4.513,2,6.475,6.475,0,0,0,4.987-2.606,15.38,15.38,0,0,1-1.025-1.85A5.05,5.05,0,0,1,6.183,129.4c-2.463,0-4.251-1.991-4.251-4.734s1.788-4.734,4.251-4.734c3.4,0,5.213,4.892,5.27,5.051.128.378,2.234,6.349,7.1,6.349a5.926,5.926,0,0,0,4.513-2,7.365,7.365,0,0,0,0-9.34Z" transform="translate(0 -118)" fill="#095adb"/>
    </g>
  </g>
</svg>
