<svg id="internet-of-things" xmlns="http://www.w3.org/2000/svg" width="53" height="53" viewBox="0 0 53 53">
  <path id="Path_1169" data-name="Path 1169" d="M137.055,121.527a15.527,15.527,0,1,0-15.527,15.527A15.545,15.545,0,0,0,137.055,121.527Zm-18.5,9.251a22.182,22.182,0,0,1-1.644-7.7h9.234a22.181,22.181,0,0,1-1.644,7.7c-.869,1.956-2.008,3.171-2.973,3.171S119.424,132.734,118.554,130.778Zm2.973-21.673c.964,0,2.1,1.215,2.973,3.171a22.183,22.183,0,0,1,1.644,7.7H116.91a22.182,22.182,0,0,1,1.644-7.7C119.424,110.32,120.563,109.105,121.527,109.105Zm5.522,23.546q.148-.3.289-.612a25.473,25.473,0,0,0,1.916-8.959h4.6a12.452,12.452,0,0,1-6.8,9.572Zm6.8-12.677h-4.6a25.47,25.47,0,0,0-1.916-8.959q-.14-.316-.289-.612A12.452,12.452,0,0,1,133.852,119.975ZM116.005,110.4q-.148.3-.289.612a25.47,25.47,0,0,0-1.916,8.959h-4.6A12.452,12.452,0,0,1,116.005,110.4Zm-6.8,12.677h4.6a25.472,25.472,0,0,0,1.916,8.959q.14.316.289.612A12.452,12.452,0,0,1,109.2,123.08Z" transform="translate(-95.027 -95.027)" fill="#095adb"/>
  <path id="Path_1170" data-name="Path 1170" d="M5.176,10.352a5.143,5.143,0,0,0,2.392-.588l3.568,3.568a1.553,1.553,0,0,0,2.2,0A18.507,18.507,0,0,1,26.5,7.867a1.553,1.553,0,0,0,0-3.105,21.566,21.566,0,0,0-14.228,5.314L9.763,7.568a5.174,5.174,0,1,0-4.588,2.784Zm0-7.246a2.07,2.07,0,1,1-2.07,2.07A2.073,2.073,0,0,1,5.176,3.105Z" fill="#095adb"/>
  <path id="Path_1171" data-name="Path 1171" d="M263.877,382.257a5.142,5.142,0,0,0-2.392.588l-3.568-3.568a1.553,1.553,0,0,0-2.2,0,18.506,18.506,0,0,1-13.169,5.464,1.553,1.553,0,0,0,0,3.105,21.566,21.566,0,0,0,14.228-5.314l2.508,2.508a5.174,5.174,0,1,0,4.588-2.784Zm0,7.246a2.07,2.07,0,1,1,2.07-2.07A2.073,2.073,0,0,1,263.877,389.5Z" transform="translate(-216.053 -339.608)" fill="#095adb"/>
  <path id="Path_1172" data-name="Path 1172" d="M7.867,242.553a1.553,1.553,0,0,0-3.105,0,21.566,21.566,0,0,0,5.314,14.228l-2.508,2.508a5.182,5.182,0,1,0,2.2,2.2l3.568-3.568a1.553,1.553,0,0,0,0-2.2A18.506,18.506,0,0,1,7.867,242.553ZM5.176,265.947a2.07,2.07,0,1,1,2.07-2.07A2.073,2.073,0,0,1,5.176,265.947Z" transform="translate(0 -216.053)" fill="#095adb"/>
  <path id="Path_1173" data-name="Path 1173" d="M384.74,26.5a1.553,1.553,0,0,0,3.105,0,21.566,21.566,0,0,0-5.314-14.228l2.508-2.508a5.182,5.182,0,1,0-2.2-2.2l-3.568,3.568a1.553,1.553,0,0,0,0,2.2A18.506,18.506,0,0,1,384.74,26.5Zm2.691-23.395a2.07,2.07,0,1,1-2.07,2.07A2.073,2.073,0,0,1,387.432,3.105Z" transform="translate(-339.608)" fill="#095adb"/>
</svg>
