<svg xmlns="http://www.w3.org/2000/svg" width="68.229" height="68.818" viewBox="0 0 68.229 68.818">
  <g id="leadership" transform="translate(-1.352 0.75)">
    <g id="Group_404" data-name="Group 404" transform="translate(2.102 12.327)">
      <g id="Group_403" data-name="Group 403" transform="translate(0)">
        <path id="Path_1032" data-name="Path 1032" d="M48.635,129.423h-10.1v-8.976a5.61,5.61,0,0,0-5.61-5.61H26.2v-6.16L41.432,97.794a1.112,1.112,0,0,0,.247-1.582l-3.366-4.488a1.122,1.122,0,0,0-1.537-.247l-11.5,7.955a7.854,7.854,0,1,0-12.42,1.941H11.61a1.122,1.122,0,0,0-.83.37L3.532,109.8a5.61,5.61,0,0,0,.224,7.719l5.935,5.969a1.129,1.129,0,0,0,1.717-.146l1.324-1.874v20.3a1.122,1.122,0,0,0,1.122,1.122h6.732a1.122,1.122,0,0,0,1.122-1.122V123.813h7.854v5.61H26.2a1.122,1.122,0,0,0-1.122,1.122v11.22a1.122,1.122,0,0,0,1.122,1.122H48.635a1.122,1.122,0,0,0,1.122-1.122v-11.22A1.122,1.122,0,0,0,48.635,129.423Zm-35.9-33.659a5.61,5.61,0,1,1,5.61,5.61A5.61,5.61,0,0,1,12.732,95.764Zm8.28,7.854-1.548,3.1-1.548-3.1Zm-8.28,12.016-1.8-1.919,1.8-1.8Zm7.854,5.935a1.122,1.122,0,0,0-1.122,1.122v17.952H14.976V109.227a1.129,1.129,0,0,0-1.919-.8l-4.488,4.488a1.122,1.122,0,0,0,0,1.571l3.669,3.826-1.9,2.648-5.026-5a3.366,3.366,0,0,1-.123-4.656l6.923-7.686H15.4l3.063,6.115a1.122,1.122,0,0,0,2,0l3.243-6.474,13.464-9.324,2.031,2.7L24.423,107.2a1.122,1.122,0,0,0-.471.909v7.854a1.122,1.122,0,0,0,1.122,1.122h7.854a3.366,3.366,0,0,1,3.366,3.366v8.976H31.805v-6.732a1.122,1.122,0,0,0-1.122-1.122Zm26.927,19.074h-20.2v-8.976h20.2Z" transform="translate(-2.102 -87.895)" fill="#095adb" stroke="#095adb" stroke-width="1.5"/>
      </g>
    </g>
    <g id="Group_406" data-name="Group 406" transform="translate(48.635)">
      <g id="Group_405" data-name="Group 405">
        <path id="Path_1033" data-name="Path 1033" d="M352.971,8.976a7.854,7.854,0,0,1-7.854-7.854,1.122,1.122,0,1,0-2.244,0,7.854,7.854,0,0,1-7.854,7.854,1.122,1.122,0,1,0,0,2.244,7.854,7.854,0,0,1,7.854,7.854,1.122,1.122,0,1,0,2.244,0,7.854,7.854,0,0,1,7.854-7.854,1.122,1.122,0,1,0,0-2.244Zm-8.976,5.475a10.186,10.186,0,0,0-4.353-4.353,10.188,10.188,0,0,0,4.353-4.353,10.188,10.188,0,0,0,4.353,4.353A10.188,10.188,0,0,0,343.995,14.451Z" transform="translate(-333.897 0)" fill="#095adb" stroke="#095adb" stroke-width="1.5"/>
      </g>
    </g>
    <g id="Group_408" data-name="Group 408" transform="translate(36.751 28.264)">
      <g id="Group_407" data-name="Group 407" transform="translate(0 0)">
        <rect id="Rectangle_100" data-name="Rectangle 100" width="3.792" height="2.244" transform="translate(0 2.242) rotate(-36.251)" fill="#095adb" stroke="#095adb" stroke-width="1.5"/>
      </g>
    </g>
    <g id="Group_410" data-name="Group 410" transform="translate(42.368 18.167)">
      <g id="Group_409" data-name="Group 409" transform="translate(0 0)">
        <rect id="Rectangle_101" data-name="Rectangle 101" width="13.912" height="2.244" transform="translate(0 8.231) rotate(-36.272)" fill="#095adb" stroke="#095adb" stroke-width="1.5"/>
      </g>
    </g>
    <g id="Group_412" data-name="Group 412" transform="translate(42.398 12.528)">
      <g id="Group_411" data-name="Group 411" transform="translate(0 0)">
        <rect id="Rectangle_102" data-name="Rectangle 102" width="8.089" height="2.244" transform="translate(0 4.487) rotate(-33.692)" fill="#095adb" stroke="#095adb" stroke-width="1.5"/>
      </g>
    </g>
  </g>
</svg>
