<svg id="like_1_" data-name="like (1)" xmlns="http://www.w3.org/2000/svg" width="69.251" height="66.834" viewBox="0 0 69.251 66.834">
  <g id="Group_468" data-name="Group 468">
    <g id="Group_467" data-name="Group 467" transform="translate(0 0)">
      <path id="Path_1060" data-name="Path 1060" d="M59.487,30.34H45.23V20.562c0-4.691-1.4-8.1-4.168-10.117-4.352-3.193-10.273-1.4-10.527-1.314a2.43,2.43,0,0,0-1.7,2.317v11.8c0,8.732-10.273,11.77-10.711,11.883-.028.014-.057.014-.071.028l-1.173.367a7.333,7.333,0,0,0-5.059-2.021H7.376A7.36,7.36,0,0,0,0,40.867V66.245A7.381,7.381,0,0,0,7.376,73.62h4.451a7.3,7.3,0,0,0,4.9-1.879,10.164,10.164,0,0,0,7.786,3.646H53.4c6.7,0,11.149-3.674,11.926-9.82l3.589-22.537.2-1.215a11.659,11.659,0,0,0,.141-1.724A9.791,9.791,0,0,0,59.487,30.34ZM14.356,66.259a2.527,2.527,0,0,1-2.529,2.529H7.376a2.527,2.527,0,0,1-2.529-2.529V40.867a2.527,2.527,0,0,1,2.529-2.529h4.451a2.527,2.527,0,0,1,2.529,2.529S14.356,66.259,14.356,66.259ZM64.32,41.065,60.533,64.86c0,.028-.014.057-.014.085-.17,1.385-.678,5.61-7.122,5.61H24.516A5.325,5.325,0,0,1,19.2,65.241V40.867a7.541,7.541,0,0,0-.071-.975l.353-.113c1.031-.3,14.2-4.338,14.2-16.546V13.441a6.641,6.641,0,0,1,4.522.918c1.441,1.074,2.176,3.151,2.176,6.2V32.771a2.43,2.43,0,0,0,2.43,2.43H59.487a4.906,4.906,0,0,1,4.9,4.9A7.509,7.509,0,0,1,64.32,41.065Z" transform="translate(0 -8.552)" fill="#009eff"/>
    </g>
  </g>
</svg>
