<svg xmlns="http://www.w3.org/2000/svg" width="57.098" height="55.105" viewBox="0 0 57.098 55.105">
  <g id="like2" transform="translate(0 -8.552)">
    <g id="Group_468" data-name="Group 468" transform="translate(0 8.552)">
      <g id="Group_467" data-name="Group 467" transform="translate(0 0)">
        <path id="Path_1060" data-name="Path 1060" d="M49.047,26.516H37.292V18.454c0-3.868-1.153-6.676-3.437-8.342-3.588-2.633-8.47-1.153-8.679-1.083a2,2,0,0,0-1.4,1.911v9.728c0,7.2-8.47,9.7-8.831,9.8-.023.012-.047.012-.058.023l-.967.3a6.046,6.046,0,0,0-4.171-1.666H6.081A6.068,6.068,0,0,0,0,35.2V56.119A6.086,6.086,0,0,0,6.081,62.2h3.67a6.018,6.018,0,0,0,4.043-1.549,8.38,8.38,0,0,0,6.419,3.006H44.026c5.522,0,9.192-3.029,9.833-8.1l2.959-18.582.163-1a9.613,9.613,0,0,0,.117-1.421A8.072,8.072,0,0,0,49.047,26.516ZM11.837,56.131a2.083,2.083,0,0,1-2.085,2.085H6.081A2.083,2.083,0,0,1,4,56.131V35.2A2.083,2.083,0,0,1,6.081,33.11h3.67A2.083,2.083,0,0,1,11.837,35.2S11.837,56.131,11.837,56.131Zm41.2-20.772L49.909,54.978c0,.023-.012.047-.012.07-.14,1.142-.559,4.625-5.872,4.625H20.213a4.39,4.39,0,0,1-4.38-4.38V35.2a6.218,6.218,0,0,0-.058-.8l.291-.093c.85-.245,11.708-3.577,11.708-13.642V12.583a5.475,5.475,0,0,1,3.728.757c1.188.885,1.794,2.6,1.794,5.114V28.52a2,2,0,0,0,2,2H49.047a4.045,4.045,0,0,1,4.043,4.043A6.192,6.192,0,0,1,53.032,35.359Z" transform="translate(0 -8.552)" fill="#095adb"/>
      </g>
    </g>
  </g>
</svg>
