<svg xmlns="http://www.w3.org/2000/svg" width="46.934" height="53.4" viewBox="0 0 46.934 53.4">
  <g id="location" transform="translate(-31)">
    <g id="Group_535" data-name="Group 535" transform="translate(31)">
      <g id="Group_534" data-name="Group 534">
        <path id="Path_1225" data-name="Path 1225" d="M63.382,35.282c5.682-8.917,4.968-7.8,5.132-8.037a17.081,17.081,0,0,0,3.162-9.932A17.209,17.209,0,1,0,40.511,27.372l5.041,7.91C40.162,36.111,31,38.579,31,44.014c0,1.981,1.293,4.8,7.453,7A49.38,49.38,0,0,0,54.467,53.4c11.267,0,23.467-3.178,23.467-9.387C77.934,38.578,68.782,36.112,63.382,35.282ZM43.124,25.651q-.026-.04-.054-.079a14.08,14.08,0,1,1,22.906-.158c-.151.2.636-1.023-11.51,18.035Zm11.342,24.62c-12.306,0-20.338-3.617-20.338-6.258,0-1.775,4.127-4.693,13.272-5.83L53.148,47.2a1.564,1.564,0,0,0,2.639,0l5.747-9.018c9.145,1.137,13.272,4.056,13.272,5.83C74.805,46.632,66.846,50.271,54.467,50.271Z" transform="translate(-31)" fill="#095adb"/>
      </g>
    </g>
    <g id="Group_537" data-name="Group 537" transform="translate(46.645 9.491)">
      <g id="Group_536" data-name="Group 536">
        <path id="Path_1226" data-name="Path 1226" d="M188.822,91a7.822,7.822,0,1,0,7.822,7.822A7.831,7.831,0,0,0,188.822,91Zm0,12.516a4.693,4.693,0,1,1,4.693-4.693A4.7,4.7,0,0,1,188.822,103.516Z" transform="translate(-181 -91)" fill="#095adb"/>
      </g>
    </g>
  </g>
</svg>
