<svg xmlns="http://www.w3.org/2000/svg" width="73.799" height="67.551" viewBox="0 0 73.799 67.551">
  <g id="megaphone" transform="translate(0 -21.675)">
    <path id="Path_1111" data-name="Path 1111" d="M429.165,297.411a2.162,2.162,0,0,0-3.058,3.058l4.362,4.362a2.162,2.162,0,0,0,3.058-3.058Z" transform="translate(-364.147 -235.45)" fill="#009eff"/>
    <path id="Path_1112" data-name="Path 1112" d="M427.637,125.464a2.156,2.156,0,0,0,1.529-.633l4.362-4.361a2.162,2.162,0,0,0-3.058-3.058l-4.362,4.362a2.162,2.162,0,0,0,1.529,3.691Z" transform="translate(-364.147 -81.395)" fill="#009eff"/>
    <path id="Path_1113" data-name="Path 1113" d="M447.537,221.907h-6.168a2.162,2.162,0,0,0,0,4.324h6.168a2.162,2.162,0,0,0,0-4.324Z" transform="translate(-375.9 -171.371)" fill="#009eff"/>
    <path id="Path_1114" data-name="Path 1114" d="M57.547,21.951a2.162,2.162,0,0,0-2.186.043L30.6,37.157H19.608a8.449,8.449,0,0,0-6.3,2.308,8.721,8.721,0,0,0-1.6,2.049H6.268A6.275,6.275,0,0,0,0,47.782v9.832a6.275,6.275,0,0,0,6.268,6.268H11.7a9.424,9.424,0,0,0,3.783,3.7L7.947,80.631A2.162,2.162,0,0,0,8.761,83.6L18.3,88.949a2.161,2.161,0,0,0,2.93-.8L31.988,69.513l23.4,13.9a2.162,2.162,0,0,0,3.267-1.859V23.837a2.163,2.163,0,0,0-1.105-1.886ZM6.268,59.558a1.946,1.946,0,0,1-1.944-1.944V47.782a1.946,1.946,0,0,1,1.944-1.944h4.274c0,.032,0,.064,0,.1V59.462c0,.032,0,.064,0,.1Zm8.6-13.623a4.567,4.567,0,0,1,1.412-3.321,4.166,4.166,0,0,1,3.14-1.136c.044,0,9.632,0,9.632,0V64.374h-9.43a5.026,5.026,0,0,1-4.754-4.912Zm3.69,38.2L12.786,80.9,19.7,68.919a2.166,2.166,0,0,0,.11-.221h7.653ZM54.328,77.76,33.372,65.306V40.531L54.328,27.7Z" fill="#009eff"/>
  </g>
</svg>
