<svg xmlns="http://www.w3.org/2000/svg" width="57.719" height="57.698" viewBox="0 0 57.719 57.698">
  <g id="message" transform="translate(0.54 0.02)">
    <path id="Path_1072" data-name="Path 1072" d="M353.123,100.5a1.107,1.107,0,1,0,1.107,1.107A1.107,1.107,0,0,0,353.123,100.5Zm0,0" transform="translate(-313.047 -88.93)" fill="#009eff" stroke="#009eff" stroke-width="1"/>
    <path id="Path_1073" data-name="Path 1073" d="M244.519,11.644,215.738.573a1.107,1.107,0,0,0-1.425,1.444l2.809,7.024-4.557,2.681a1.107,1.107,0,0,0,0,1.908l4.557,2.681-2.809,7.024a1.107,1.107,0,0,0,1.425,1.444l28.782-11.07.014-.006a1.107,1.107,0,0,0-.014-2.06Zm-26.566-.522.622,1.555-.622,1.555-2.644-1.555Zm1.577,5.129.987-2.467H224.2a1.107,1.107,0,0,0,0-2.214h-3.679L217.309,3.55,238.16,11.57h-5.108a1.107,1.107,0,0,0,0,2.214h5.108L217.309,21.8Zm0,0" transform="translate(-188.548)" fill="#009eff" stroke="#009eff" stroke-width="1"/>
    <path id="Path_1074" data-name="Path 1074" d="M12.18,313.534v-1.107a1.108,1.108,0,0,0,1.107-1.108,4.429,4.429,0,0,1,1.442-3.331,8.862,8.862,0,0,0-7.942-15.251,8.857,8.857,0,0,0-3.769,15.277,4.014,4.014,0,0,1,1.048,1.47,4.744,4.744,0,0,1,.365,1.837,1.107,1.107,0,0,0,1.107,1.107v1.107a3.321,3.321,0,1,0,6.642,0Zm-7.7-7.184a6.642,6.642,0,1,1,8.783-.02,6.557,6.557,0,0,0-2.1,3.883H9.966v-5.076l1.89-1.89a1.107,1.107,0,1,0-1.566-1.566l-1.431,1.431-1.431-1.431a1.107,1.107,0,0,0-1.566,1.566l1.89,1.89v5.076H6.557a6.849,6.849,0,0,0-.452-1.592,6.22,6.22,0,0,0-1.626-2.271Zm4.38,8.291a1.108,1.108,0,0,1-1.107-1.107v-1.107H9.966v1.107A1.108,1.108,0,0,1,8.859,314.641Zm0,0" transform="translate(0 -259.678)" fill="#009eff" stroke="#009eff" stroke-width="1"/>
    <path id="Path_1075" data-name="Path 1075" d="M76.772,116.662h-27.9a6.982,6.982,0,0,1,0-13.948H55.74a1.107,1.107,0,0,0,0-2.214H48.876a9.194,9.194,0,0,0,0,18.376h27.9a6.905,6.905,0,0,1,6.642,6.974,7.2,7.2,0,0,1-1.967,4.886,6.41,6.41,0,0,1-4.675,2.089H56.625a1.107,1.107,0,1,0,0,2.214H76.772a8.6,8.6,0,0,0,6.285-2.783,9.439,9.439,0,0,0,2.571-6.405A9.148,9.148,0,0,0,76.772,116.662Zm0,0" transform="translate(-35.59 -88.93)" fill="#009eff" stroke="#009eff" stroke-width="1"/>
  </g>
</svg>
