<svg id="money-bag" xmlns="http://www.w3.org/2000/svg" width="53.4" height="53.4" viewBox="0 0 53.4 53.4">
  <path id="Path_1053" data-name="Path 1053" d="M155.533,258.1a1.566,1.566,0,0,1-1.564-1.564,1.564,1.564,0,1,0-3.129,0,4.7,4.7,0,0,0,3.146,4.43v1.37a1.564,1.564,0,1,0,3.129,0v-1.381a4.693,4.693,0,0,0-1.581-9.112,1.564,1.564,0,1,1,1.564-1.564,1.564,1.564,0,1,0,3.129,0,4.7,4.7,0,0,0-3.112-4.419v-2.3a1.564,1.564,0,1,0-3.129,0v2.286a4.693,4.693,0,0,0,1.548,9.124,1.564,1.564,0,1,1,0,3.129Zm0,0" transform="translate(-135.108 -216.761)" fill="#095adb"/>
  <path id="Path_1054" data-name="Path 1054" d="M6.376,50.845C9.632,52.588,14.1,53.4,20.442,53.4c5.159,0,9.041-.535,12.058-1.671A4.684,4.684,0,0,0,36.086,53.4h12.62A4.69,4.69,0,0,0,52.2,45.578a4.682,4.682,0,0,0,0-6.258,4.682,4.682,0,0,0,0-6.258,4.69,4.69,0,0,0-3.494-7.822H36.086c-.152,0-.3.008-.452.022A21.424,21.424,0,0,0,30.2,20.543a4.688,4.688,0,0,0-1.489-7.366l2.608-8a1.565,1.565,0,0,0-1.487-2.05H24.866a4.693,4.693,0,0,0-8.85,0H11.055a1.565,1.565,0,0,0-1.487,2.05l2.608,8a4.688,4.688,0,0,0-1.488,7.368A22.316,22.316,0,0,0,0,39.32C0,44.7,2.145,48.58,6.376,50.845ZM50.271,36.191a1.566,1.566,0,0,1-1.564,1.564H36.086a1.564,1.564,0,0,1,0-3.129h12.62A1.566,1.566,0,0,1,50.271,36.191Zm0,6.258a1.566,1.566,0,0,1-1.564,1.564H36.086a1.564,1.564,0,0,1,0-3.129h12.62A1.566,1.566,0,0,1,50.271,42.449Zm-1.564,7.822H36.086a1.564,1.564,0,0,1,0-3.129h12.62a1.564,1.564,0,0,1,0,3.129Zm1.564-20.338A1.566,1.566,0,0,1,48.706,31.5H36.086a1.564,1.564,0,0,1,0-3.129h12.62A1.566,1.566,0,0,1,50.271,29.933ZM26.655,18.982H14.184a1.564,1.564,0,0,1,0-3.128H26.7a1.564,1.564,0,0,1,0,3.128h-.045ZM17.313,6.258a1.564,1.564,0,0,0,1.564-1.564,1.564,1.564,0,1,1,3.129,0V7.822a1.564,1.564,0,1,0,3.129,0V6.258h2.538l-2.109,6.466H15.319L13.211,6.258ZM14.489,22.111h11.9a17.68,17.68,0,0,1,6.329,4.559,4.682,4.682,0,0,0-.125,6.392,4.682,4.682,0,0,0,0,6.258,4.682,4.682,0,0,0,0,6.258,4.675,4.675,0,0,0-1.2,3.129c0,.032,0,.064,0,.1-2.647,1-6.171,1.469-10.954,1.469-5.8,0-9.805-.694-12.589-2.185C4.63,46.361,3.129,43.575,3.129,39.32A18.982,18.982,0,0,1,14.489,22.111Zm0,0" transform="translate(0 0)" fill="#095adb"/>
</svg>
