<svg xmlns="http://www.w3.org/2000/svg" width="55.13" height="55.121" viewBox="0 0 55.13 55.121">
  <g id="online-shopping" transform="translate(0 -9.406)">
    <g id="Group_100" data-name="Group 100" transform="translate(0 9.405)">
      <path id="Path_152" data-name="Path 152" d="M26.674,56.536H12.317A6.322,6.322,0,0,1,6,50.219v-37.9A6.322,6.322,0,0,1,12.317,6h42.5a6.322,6.322,0,0,1,6.317,6.317V35.862H57.684V12.317a2.875,2.875,0,0,0-2.871-2.871h-42.5a2.875,2.875,0,0,0-2.871,2.871v37.9a2.875,2.875,0,0,0,2.871,2.871H26.674Z" transform="translate(-6 -6)" fill="#0583e0"/>
    </g>
    <g id="Group_101" data-name="Group 101" transform="translate(1.454 17.445)">
      <path id="Path_153" data-name="Path 153" d="M6.75,9.5H58.434v3.446H6.75Z" transform="translate(-6.75 -9.5)" fill="#0583e0"/>
    </g>
    <g id="Group_102" data-name="Group 102" transform="translate(29.594 25.485)">
      <path id="Path_154" data-name="Path 154" d="M19,13h3.446V24.485H19Z" transform="translate(-19 -13)" fill="#0583e0"/>
    </g>
    <g id="Group_103" data-name="Group 103" transform="translate(21.554 25.485)">
      <path id="Path_155" data-name="Path 155" d="M15.5,13h3.446v9.3H15.5Z" transform="translate(-15.5 -13)" fill="#0583e0"/>
    </g>
    <g id="Group_104" data-name="Group 104" transform="translate(36.797 25.646)">
      <path id="Path_156" data-name="Path 156" d="M27.566,21.523a1.722,1.722,0,0,1-1.41-.735l-4.02-5.743,2.823-1.975L27.569,16.8l2.609-3.728L33,15.045l-4.02,5.743A1.737,1.737,0,0,1,27.566,21.523Z" transform="translate(-22.136 -13.07)" fill="#0583e0"/>
    </g>
    <g id="Group_105" data-name="Group 105" transform="translate(40.505 32.376)">
      <path id="Path_157" data-name="Path 157" d="M23.75,16H27.2v2.3H23.75Z" transform="translate(-23.75 -16)" fill="#0583e0"/>
    </g>
    <g id="Group_106" data-name="Group 106" transform="translate(6.623 25.485)">
      <path id="Path_158" data-name="Path 158" d="M15.6,29.08H10.723A1.723,1.723,0,0,1,9,27.357V14.723A1.723,1.723,0,0,1,10.723,13H15.6a4.879,4.879,0,0,1,3.719,8.04A4.879,4.879,0,0,1,15.6,29.08Zm-3.158-3.446H15.6a1.436,1.436,0,0,0,0-2.871H12.446Zm0-6.317H15.6a1.436,1.436,0,0,0,0-2.871H12.446Z" transform="translate(-9 -13)" fill="#0583e0"/>
    </g>
    <g id="Group_107" data-name="Group 107" transform="translate(30.639 41.613)">
      <path id="Path_159" data-name="Path 159" d="M23.144,29.212,20.6,26.662a3.891,3.891,0,0,1,2.747-6.641h0a3.846,3.846,0,0,1,2.747,1.142l1.02,1.018L24.676,24.62l-1.02-1.02a.441.441,0,0,0-.625.623l2.547,2.55Z" transform="translate(-19.455 -20.021)" fill="#0583e0"/>
    </g>
    <g id="Group_108" data-name="Group 108" transform="translate(34.723 39.576)">
      <path id="Path_160" data-name="Path 160" d="M24.92,28.32l-2.547-2.55a3.889,3.889,0,0,1,5.5-5.5l2.04,2.04-2.437,2.437-2.04-2.04a.436.436,0,0,0-.625,0,.5.5,0,0,0,0,.623l2.55,2.552Z" transform="translate(-21.233 -19.134)" fill="#0583e0"/>
    </g>
    <g id="Group_109" data-name="Group 109" transform="translate(39.826 38.552)">
      <path id="Path_161" data-name="Path 161" d="M33.776,28.383l-6.122-6.124a.443.443,0,0,0-.627.627l1.53,1.53L26.12,26.853l-1.53-1.53a3.889,3.889,0,0,1,5.5-5.5l6.119,6.119Z" transform="translate(-23.455 -18.689)" fill="#0583e0"/>
    </g>
    <g id="Group_110" data-name="Group 110" transform="translate(21.459 38.557)">
      <path id="Path_162" data-name="Path 162" d="M36.769,44.66A19.029,19.029,0,0,1,28.8,42.5c-3.149-1.5-4.642-1.438-5.623-1.4a3.584,3.584,0,0,1-3.014-.972c-1.031-1.031-1.385-3.09,1.02-5.5a6.411,6.411,0,0,1,3.041-1.67l-7.626-7.626a3.89,3.89,0,0,1,5.5-5.5l6.119,6.122L25.778,28.39,19.658,22.27a.443.443,0,0,0-.627.627L29.464,33.331a1.722,1.722,0,0,1-1.47,2.922c-1.153-.172-3.269-.292-4.376.813a5.273,5.273,0,0,0-.515.588c1.25-.046,3.331-.092,7.176,1.737,6.425,3.053,8.949,1.642,10.3.322l2.033-2.033c2.506-2.5,4.273-6.563,1.047-9.788l-5.628-5.63a.443.443,0,0,0-.627.627l-2.437,2.435a3.889,3.889,0,0,1,5.5-5.5l5.609,5.612c4.091,4.093,3.675,9.981-1.015,14.671L43,42.161a8.543,8.543,0,0,1-6.234,2.5Z" transform="translate(-15.459 -18.691)" fill="#0583e0"/>
    </g>
  </g>
</svg>
