<svg xmlns="http://www.w3.org/2000/svg" width="68.239" height="68.236" viewBox="0 0 68.239 68.236">
  <g id="online-advertising" transform="translate(0.25 -0.251)">
    <path id="Path_1076" data-name="Path 1076" d="M53.761,47.146h.012a1.329,1.329,0,1,0-.012,0Zm0,0" transform="translate(-45.5 -38.178)" fill="#009eff" stroke="#009eff" stroke-width="0.5"/>
    <path id="Path_1077" data-name="Path 1077" d="M99.261,47.146h.012a1.329,1.329,0,1,0-.012,0Zm0,0" transform="translate(-84.98 -38.178)" fill="#009eff" stroke="#009eff" stroke-width="0.5"/>
    <path id="Path_1078" data-name="Path 1078" d="M144.764,47.146h.012a1.329,1.329,0,1,0-.012,0Zm0,0" transform="translate(-124.463 -38.178)" fill="#009eff" stroke="#009eff" stroke-width="0.5"/>
    <path id="Path_1079" data-name="Path 1079" d="M223.069,47.146h18.422a1.323,1.323,0,1,0,0-2.646H223.069a1.323,1.323,0,1,0,0,2.646Zm0,0" transform="translate(-192.408 -38.178)" fill="#009eff" stroke="#009eff" stroke-width="0.5"/>
    <path id="Path_1080" data-name="Path 1080" d="M415.307,268.492a1.324,1.324,0,1,0,.935.388A1.331,1.331,0,0,0,415.307,268.492Zm0,0" transform="translate(-359.212 -232.535)" fill="#009eff" stroke="#009eff" stroke-width="0.5"/>
    <path id="Path_1081" data-name="Path 1081" d="M195.163,176.492h-1.648a1.323,1.323,0,0,0-1.323,1.323v9.525a1.323,1.323,0,0,0,1.323,1.323h1.648a6.086,6.086,0,0,0,0-12.171Zm0,9.525h-.325v-6.879h.325a3.44,3.44,0,0,1,0,6.879Zm0,0" transform="translate(-166.764 -152.707)" fill="#009eff" stroke="#009eff" stroke-width="0.5"/>
    <path id="Path_1082" data-name="Path 1082" d="M109.124,177.394a1.323,1.323,0,0,0-2.508,0l-3.205,9.525a1.323,1.323,0,1,0,2.508.844l.1-.29h3.708l.1.29a1.323,1.323,0,1,0,2.508-.844Zm-2.218,7.434.964-2.864.963,2.864Zm0,0" transform="translate(-89.669 -152.707)" fill="#009eff" stroke="#009eff" stroke-width="0.5"/>
    <path id="Path_1083" data-name="Path 1083" d="M67.352,57.019l-9-9,3.171-3.17a1.323,1.323,0,0,0-.57-2.207L41.806,37.131V19.816a1.323,1.323,0,0,0-1.323-1.323H7.673a1.323,1.323,0,0,0-1.323,1.323v20.11a1.323,1.323,0,0,0,1.323,1.323H36.329l2.286,7.938H3.969a1.324,1.324,0,0,1-1.323-1.323V14.789H54.772v17.2a1.323,1.323,0,0,0,2.646,0V4.47A3.973,3.973,0,0,0,53.449.5H3.969A3.973,3.973,0,0,0,0,4.47V47.863a3.973,3.973,0,0,0,3.969,3.969H39.377l2.771,9.623a1.323,1.323,0,0,0,2.207.57l3.17-3.17,9,9a1.324,1.324,0,0,0,1.871,0l8.96-8.96a1.323,1.323,0,0,0,0-1.871ZM3.969,3.147H53.449A1.325,1.325,0,0,1,54.772,4.47v7.673H2.646V4.47A1.324,1.324,0,0,1,3.969,3.147ZM9,38.6V21.139H39.16v15.23L36.84,35.7A1.323,1.323,0,0,0,35.2,37.338l.364,1.264Zm48.46,26.441-9-9a1.323,1.323,0,0,0-1.871,0l-2.519,2.52L38.407,38.906l19.662,5.662-2.519,2.52a1.323,1.323,0,0,0,0,1.871l9,9Zm0,0" fill="#009eff" stroke="#009eff" stroke-width="0.5"/>
    <path id="Path_1084" data-name="Path 1084" d="M59.791,331.133a1.323,1.323,0,1,0,0-2.646H50.749a1.323,1.323,0,1,0,0,2.646Zm0,0" transform="translate(-42.887 -284.593)" fill="#009eff" stroke="#009eff" stroke-width="0.5"/>
    <path id="Path_1085" data-name="Path 1085" d="M159.524,330.747a1.322,1.322,0,1,0-.935.388A1.334,1.334,0,0,0,159.524,330.747Zm0,0" transform="translate(-136.459 -284.594)" fill="#009eff" stroke="#009eff" stroke-width="0.5"/>
  </g>
</svg>
