<svg xmlns="http://www.w3.org/2000/svg" width="62.883" height="62.99" viewBox="0 0 62.883 62.99">
  <g id="operation" transform="translate(0.477 0.55)">
    <g id="Group_561" data-name="Group 561" transform="translate(8.274 8.255)">
      <g id="Group_560" data-name="Group 560">
        <path id="Path_1248" data-name="Path 1248" d="M108.894,83.639,106.284,82.1c-.078-.315-.162-.627-.255-.936l1.857-2.811a1.032,1.032,0,0,0,.077-1,22.633,22.633,0,0,0-2.361-3.976,1.051,1.051,0,0,0-.879-.417l-3.461.17q-.326-.335-.667-.653l.173-3.353a1.031,1.031,0,0,0-.436-.9,23.5,23.5,0,0,0-4.064-2.3A1.029,1.029,0,0,0,95.3,66l-2.9,1.828c-.314-.09-.635-.174-.958-.25l-1.58-3a1.032,1.032,0,0,0-.913-.551H84.475a1.031,1.031,0,0,0-.913.551l-1.579,3q-.483.113-.959.25L78.124,66a1.029,1.029,0,0,0-.965-.072,23.449,23.449,0,0,0-4.066,2.3,1.031,1.031,0,0,0-.435.9l.173,3.354q-.342.318-.667.652l-3.462-.17a1.076,1.076,0,0,0-.88.417,22.827,22.827,0,0,0-2.359,3.976,1.033,1.033,0,0,0,.076,1L67.4,81.167c-.093.308-.177.621-.255.936l-2.611,1.535a1.031,1.031,0,0,0-.509.889V88.9a1.031,1.031,0,0,0,.509.889l2.611,1.535c.078.315.162.627.255.936l-1.857,2.811a1.032,1.032,0,0,0-.077,1,22.651,22.651,0,0,0,2.361,3.976,1.059,1.059,0,0,0,.879.417l3.461-.17q.326.335.667.653l-.173,3.352a1.031,1.031,0,0,0,.436.9,23.515,23.515,0,0,0,4.064,2.3,1.032,1.032,0,0,0,.966-.071l2.9-1.828c.314.09.635.174.958.25l1.58,3a1.032,1.032,0,0,0,.913.552h4.476a1.031,1.031,0,0,0,.913-.551l1.579-3q.483-.113.959-.25l2.9,1.828a1.032,1.032,0,0,0,.965.072,23.449,23.449,0,0,0,4.066-2.3,1.031,1.031,0,0,0,.435-.9l-.173-3.354q.342-.318.667-.652l3.462.17a1.042,1.042,0,0,0,.879-.417,22.761,22.761,0,0,0,2.36-3.977,1.033,1.033,0,0,0-.076-1l-1.857-2.812c.093-.308.177-.621.255-.936l2.611-1.535a1.03,1.03,0,0,0,.509-.889V84.528A1.031,1.031,0,0,0,108.894,83.639ZM107.34,88.31l-2.484,1.461a1.031,1.031,0,0,0-.484.667c-.124.563-.277,1.122-.453,1.661a1.032,1.032,0,0,0,.119.889h0l1.8,2.733a20.63,20.63,0,0,1-1.579,2.656l-3.373-.166a1.077,1.077,0,0,0-.806.328c-.39.418-.8.823-1.23,1.2a1.03,1.03,0,0,0-.346.824l.168,3.264a21.385,21.385,0,0,1-2.748,1.554L93.1,103.6a1.027,1.027,0,0,0-.858-.111c-.554.173-1.128.323-1.705.444a1.029,1.029,0,0,0-.7.529l-1.512,2.875H85.1l-1.512-2.875a1.032,1.032,0,0,0-.7-.529c-.582-.123-1.156-.272-1.706-.444a1.026,1.026,0,0,0-.858.111l-2.826,1.781a21.456,21.456,0,0,1-2.748-1.555l.169-3.263a1.032,1.032,0,0,0-.347-.825c-.425-.377-.839-.781-1.23-1.2a1.056,1.056,0,0,0-.806-.328l-3.372.166a20.527,20.527,0,0,1-1.58-2.656l1.8-2.733a1.03,1.03,0,0,0,.12-.889c-.176-.539-.329-1.1-.453-1.662a1.03,1.03,0,0,0-.484-.667L66.085,88.31V85.117l2.484-1.461a1.031,1.031,0,0,0,.484-.667c.124-.563.277-1.122.453-1.661a1.032,1.032,0,0,0-.119-.889l-1.8-2.734a20.694,20.694,0,0,1,1.579-2.656l3.373.166a1.028,1.028,0,0,0,.806-.328c.39-.418.8-.823,1.23-1.2a1.03,1.03,0,0,0,.346-.824L74.748,69.6A21.385,21.385,0,0,1,77.5,68.042l2.825,1.781a1.031,1.031,0,0,0,.858.111c.554-.173,1.128-.323,1.705-.444a1.029,1.029,0,0,0,.7-.529L85.1,66.086h3.231l1.512,2.875a1.032,1.032,0,0,0,.7.529c.582.123,1.156.272,1.706.444a1.036,1.036,0,0,0,.858-.111l2.826-1.781A21.454,21.454,0,0,1,98.678,69.6l-.169,3.264a1.032,1.032,0,0,0,.347.825c.425.377.839.781,1.23,1.2a1.048,1.048,0,0,0,.806.328l3.372-.166a20.525,20.525,0,0,1,1.58,2.656l-1.8,2.733a1.03,1.03,0,0,0-.12.889c.176.539.329,1.1.453,1.661a1.03,1.03,0,0,0,.484.667l2.484,1.461V88.31Z" transform="translate(-64.022 -64.023)" fill="#095adb" stroke="#095adb" stroke-width="1"/>
      </g>
    </g>
    <g id="Group_563" data-name="Group 563" transform="translate(15.493 15.474)">
      <g id="Group_562" data-name="Group 562">
        <path id="Path_1249" data-name="Path 1249" d="M135.494,120.024a15.471,15.471,0,1,0,15.471,15.471A15.471,15.471,0,0,0,135.494,120.024Zm0,28.879A13.408,13.408,0,1,1,148.9,135.495,13.408,13.408,0,0,1,135.494,148.9Z" transform="translate(-120.023 -120.024)" fill="#095adb" stroke="#095adb" stroke-width="1"/>
      </g>
    </g>
    <g id="Group_565" data-name="Group 565" transform="translate(46.435 4.129)">
      <g id="Group_564" data-name="Group 564">
        <path id="Path_1250" data-name="Path 1250" d="M366.211,32.024v6.188h-6.188v2.063h7.22a1.031,1.031,0,0,0,1.031-1.031h0v-7.22Z" transform="translate(-360.023 -32.024)" fill="#095adb" stroke="#095adb" stroke-width="1"/>
      </g>
    </g>
    <g id="Group_567" data-name="Group 567" transform="translate(7.242 49.51)">
      <g id="Group_566" data-name="Group 566">
        <path id="Path_1251" data-name="Path 1251" d="M57.054,384.024a1.031,1.031,0,0,0-1.031,1.031h0v7.22h2.063v-6.188h6.188v-2.063Z" transform="translate(-56.023 -384.024)" fill="#095adb" stroke="#095adb" stroke-width="1"/>
      </g>
    </g>
    <g id="Group_569" data-name="Group 569" transform="translate(0.023 0.001)">
      <g id="Group_568" data-name="Group 568" transform="translate(0 0)">
        <path id="Path_1252" data-name="Path 1252" d="M5.357,13.58a30.946,30.946,0,0,0,0,34.74l1.706-1.16A28.882,28.882,0,0,1,47.178,7.045l1.16-1.706A30.946,30.946,0,0,0,5.357,13.58Z" transform="translate(-0.023 -0.001)" fill="#095adb" stroke="#095adb" stroke-width="1"/>
      </g>
    </g>
    <g id="Group_571" data-name="Group 571" transform="translate(13.59 13.873)">
      <g id="Group_570" data-name="Group 570">
        <path id="Path_1253" data-name="Path 1253" d="M148.442,107.606l-1.72,1.139a28.883,28.883,0,0,1-40.3,39.833l-1.16,1.706a30.946,30.946,0,0,0,43.184-42.679Z" transform="translate(-105.258 -107.606)" fill="#095adb" stroke="#095adb" stroke-width="1"/>
      </g>
    </g>
  </g>
</svg>
