<svg xmlns="http://www.w3.org/2000/svg" width="18.827" height="19.301" viewBox="0 0 18.827 19.301">
  <g id="Outline" transform="translate(-3.563 0)">
    <path id="Path_1874" data-name="Path 1874" d="M64.167,4.385A.815.815,0,0,0,63.99,3.5L60.732.238a.815.815,0,0,0-1.152,0L56.321,3.5A.825.825,0,0,0,56.9,4.888h.815v8.961a.815.815,0,0,0,.815.815h3.259a.815.815,0,0,0,.815-.815V4.888h.815a.815.815,0,0,0,.753-.5Zm-3.2-.312v8.961H59.341V4.073a.815.815,0,0,0-.529-.763l1.343-1.344L61.5,3.31A.815.815,0,0,0,60.97,4.073Z" transform="translate(-47.179 0)" fill="#095adb"/>
    <path id="Path_1875" data-name="Path 1875" d="M72,152h4.888v1.629H72Z" transform="translate(-61.468 -136.521)" fill="#095adb"/>
    <path id="Path_1879" data-name="Path 1879" d="M72,152h4.888v1.629H72Z" transform="translate(-61.468 -134.329)" fill="#095adb"/>
    <path id="Path_1876" data-name="Path 1876" d="M132.467,51.122l1.177-.785V53.7h1.629V50.337l1.178.785.9-1.356-2.444-1.629a.815.815,0,0,0-.9,0l-2.444,1.629Z" transform="translate(-114.965 -43.113)" fill="#095adb"/>
    <path id="Path_1877" data-name="Path 1877" d="M126.007,120.137l-2.444,1.629.9,1.356,1.177-.785V125.7h1.629v-3.366l1.178.785.9-1.356-2.444-1.629A.815.815,0,0,0,126.007,120.137Z" transform="translate(-107.78 -107.781)" fill="#095adb"/>
    <path id="Path_1878" data-name="Path 1878" d="M6.007,80.137,3.563,81.767l.9,1.356,1.177-.785V85.7H7.274V82.337l1.178.785.9-1.356L6.911,80.137a.815.815,0,0,0-.9,0Z" transform="translate(0 -71.854)" fill="#095adb"/>
  </g>
</svg>
