<svg xmlns="http://www.w3.org/2000/svg" width="66.046" height="41.597" viewBox="0 0 66.046 41.597">
  <g id="profits" transform="translate(0 -80.263)">
    <g id="Group_371" data-name="Group 371" transform="translate(0 94.766)">
      <path id="Path_1009" data-name="Path 1009" d="M65.832,96.478a2.781,2.781,0,0,0-.6-.9c-.017-.017-.033-.019-.047-.033a2.829,2.829,0,0,0-.857-.566,2.776,2.776,0,0,0-.819-.167c-.083-.006-.153-.044-.236-.044h-22.2a2.775,2.775,0,0,0,0,5.55H56.6L34.633,122.408l-8.358-10.7a2.775,2.775,0,0,0-4.1-.308L.867,131.576a2.775,2.775,0,0,0,3.816,4.029l19.095-18.079L32.193,128.3a2.777,2.777,0,0,0,4.157.25L60.5,104.267v15.473a2.775,2.775,0,0,0,5.55,0v-22.2A2.849,2.849,0,0,0,65.832,96.478Z" transform="translate(0 -109.269)" fill="#095adb"/>
    </g>
  </g>
</svg>
