<svg xmlns="http://www.w3.org/2000/svg" width="65.875" height="65.834" viewBox="0 0 65.875 65.834">
  <g id="profit" transform="translate(0.521 0.5)">
    <path id="Path_1092" data-name="Path 1092" d="M221.065,52.663a2.533,2.533,0,1,1-2.339,3.507,1.266,1.266,0,1,0-2.337.975A5.05,5.05,0,0,0,219.8,60.1v1.429a1.266,1.266,0,1,0,2.533,0V60.1a5.065,5.065,0,0,0-1.266-9.97,2.533,2.533,0,1,1,2.339-3.507,1.266,1.266,0,1,0,2.337-.975,5.05,5.05,0,0,0-3.41-2.953V41.266a1.266,1.266,0,1,0-2.533,0v1.427a5.065,5.065,0,0,0,1.266,9.97Z" transform="translate(-188.648 -34.935)" fill="#095adb" stroke="#095adb" stroke-width="1"/>
    <path id="Path_1093" data-name="Path 1093" d="M142.462,32.923A16.462,16.462,0,1,0,126,16.462,16.48,16.48,0,0,0,142.462,32.923Zm0-30.391a13.929,13.929,0,1,1-13.929,13.929A13.945,13.945,0,0,1,142.462,2.533Z" transform="translate(-110.045)" fill="#095adb" stroke="#095adb" stroke-width="1"/>
    <path id="Path_1094" data-name="Path 1094" d="M127.266,318.955A1.266,1.266,0,0,0,126,320.221V328.2a1.266,1.266,0,0,0,1.266,1.266h30.391a1.266,1.266,0,0,0,1.266-1.266v-6.711h6.331a1.266,1.266,0,0,0,1.266-1.266v-7.978a1.266,1.266,0,0,0-1.266-1.266h-6.331v-6.711A1.266,1.266,0,0,0,157.657,303H127.266A1.266,1.266,0,0,0,126,304.266v7.978a1.266,1.266,0,0,0,1.266,1.266H133.6v5.445Zm36.722-5.445v5.445H136.13V313.51Zm-35.456-2.533v-5.445h27.858v5.445Zm27.858,10.51v5.445H128.533v-5.445Z" transform="translate(-110.045 -264.632)" fill="#095adb" stroke="#095adb" stroke-width="1"/>
    <path id="Path_1095" data-name="Path 1095" d="M6.331,183a1.266,1.266,0,0,0-1.054.564l-5.065,7.6a1.266,1.266,0,0,0,1.054,1.969H2.533v6.331A1.266,1.266,0,0,0,3.8,200.728H8.864a1.266,1.266,0,0,0,1.266-1.266V193.13H11.4a1.266,1.266,0,0,0,1.054-1.969l-5.065-7.6A1.266,1.266,0,0,0,6.331,183Z" transform="translate(0 -159.827)" fill="#095adb" stroke="#095adb" stroke-width="1"/>
    <path id="Path_1096" data-name="Path 1096" d="M422.131,199.462V193.13H423.4a1.266,1.266,0,0,0,1.054-1.969l-5.065-7.6a1.266,1.266,0,0,0-2.107,0l-5.065,7.6a1.266,1.266,0,0,0,1.054,1.969h1.266v6.331a1.266,1.266,0,0,0,1.266,1.266h5.065A1.266,1.266,0,0,0,422.131,199.462Z" transform="translate(-359.83 -159.827)" fill="#095adb" stroke="#095adb" stroke-width="1"/>
  </g>
</svg>
