<svg xmlns="http://www.w3.org/2000/svg" width="56.202" height="56.308" viewBox="0 0 56.202 56.308">
  <path id="reduce" d="M49.637,53.75a1.557,1.557,0,0,1-1.557,1.557H1.862a1.557,1.557,0,0,1,0-3.114H7.9V11.854a1.557,1.557,0,1,1,3.114,0V52.194H21.5V25.465a1.557,1.557,0,1,1,3.114,0V52.194H35.1V36.353a1.557,1.557,0,1,1,3.114,0V52.194H48.08A1.557,1.557,0,0,1,49.637,53.75ZM53.95,28.9a1.557,1.557,0,0,0-1.557,1.557V34.7L18.145.456A1.55,1.55,0,0,0,17.011,0H1.862a1.557,1.557,0,0,0,0,3.114H16.4L50.192,36.906H45.941a1.557,1.557,0,1,0,0,3.114H53.95a1.554,1.554,0,0,0,1.238-.612,1.552,1.552,0,0,0,.319-.944h0V30.454A1.556,1.556,0,0,0,53.95,28.9Z" transform="translate(0.195 0.5)" fill="#095adb" stroke="#095adb" stroke-width="1"/>
</svg>
