<svg xmlns="http://www.w3.org/2000/svg" width="50.89" height="57.512" viewBox="0 0 50.89 57.512">
  <g id="save-money" transform="translate(0.291 0.65)">
    <path id="Path_1213" data-name="Path 1213" d="M190.052,160.736a.878.878,0,0,0-.316-.011,2.1,2.1,0,0,1-1.854-2.079.922.922,0,1,0-1.844,0,3.944,3.944,0,0,0,2.9,3.8v.922a.922.922,0,1,0,1.844,0V162.5a3.937,3.937,0,0,0-.807-7.791,2.093,2.093,0,1,1,2.093-2.094.922.922,0,1,0,1.844,0,3.945,3.945,0,0,0-3.131-3.854v-.839a.922.922,0,0,0-1.844,0v.9a3.937,3.937,0,0,0,1.037,7.735,2.092,2.092,0,0,1,.077,4.183Zm0,0" transform="translate(-164.278 -130.058)" fill="#095adb" stroke="#095adb" stroke-width="1.3"/>
    <path id="Path_1214" data-name="Path 1214" d="M104.195,119.862a13.37,13.37,0,1,0,13.37-13.37A13.37,13.37,0,0,0,104.195,119.862Zm13.37-11.526a11.526,11.526,0,1,1-11.526,11.526A11.526,11.526,0,0,1,117.565,108.336Zm0,0" transform="translate(-91.868 -94.218)" fill="#095adb" stroke="#095adb" stroke-width="1.3"/>
    <path id="Path_1215" data-name="Path 1215" d="M43.614,330.03l-7.223,3.413a5.883,5.883,0,0,0-5.015-3.095l-6.668-.183a7.042,7.042,0,0,1-3.03-.783L21,329.03a11.967,11.967,0,0,0-11.085.012l.042-1.537a.922.922,0,0,0-.9-.947l-7.311-.2a.922.922,0,0,0-.947.9L.36,343.3a.922.922,0,0,0,.9.947l7.311.2h.025a.922.922,0,0,0,.922-.9l.021-.768,1.9-1.017a3.258,3.258,0,0,1,2.432-.266l11.343,3.183.06.015a12.141,12.141,0,0,0,2.493.257,12.3,12.3,0,0,0,5.139-1.121.855.855,0,0,0,.114-.063l16.446-10.638a.923.923,0,0,0,.3-1.228,4.658,4.658,0,0,0-6.151-1.874Zm-41.385,12.4.391-14.2,5.468.15-.391,14.2Zm29.842-.241a10.454,10.454,0,0,1-6.393.714l-11.312-3.175a5.1,5.1,0,0,0-3.8.416l-.971.52.26-9.442a10.135,10.135,0,0,1,10.3-.549l.678.352a8.9,8.9,0,0,0,3.828.989l6.668.183a4.044,4.044,0,0,1,3.843,3.223l-9.932-.274a.922.922,0,1,0-.051,1.844l10.961.3h.026a.922.922,0,0,0,.921-.9,5.852,5.852,0,0,0-.089-1.2l7.408-3.5.022-.01a2.817,2.817,0,0,1,3.186.446Zm0,0" transform="translate(0 -288.742)" fill="#095adb" stroke="#095adb" stroke-width="1.3"/>
    <path id="Path_1216" data-name="Path 1216" d="M214.047,9.681V.922a.922.922,0,0,0-1.844,0V9.681a.922.922,0,0,0,1.844,0Zm0,0" transform="translate(-187.427)" fill="#095adb" stroke="#095adb" stroke-width="1.3"/>
    <path id="Path_1217" data-name="Path 1217" d="M274.047,45.071V40.922a.922.922,0,1,0-1.844,0v4.149a.922.922,0,1,0,1.844,0Zm0,0" transform="translate(-240.512 -35.39)" fill="#095adb" stroke="#095adb" stroke-width="1.3"/>
    <path id="Path_1218" data-name="Path 1218" d="M154.047,45.071V40.922a.922.922,0,0,0-1.844,0v4.149a.922.922,0,0,0,1.844,0Zm0,0" transform="translate(-134.343 -35.39)" fill="#095adb" stroke="#095adb" stroke-width="1.3"/>
  </g>
</svg>
