<svg xmlns="http://www.w3.org/2000/svg" width="68.381" height="68.381" viewBox="0 0 68.381 68.381">
  <g id="seo_1_" data-name="seo (1)" transform="translate(0.75 0.75)">
    <path id="Path_1041" data-name="Path 1041" d="M117.286,91.959h30.639a5.025,5.025,0,0,1,5.009,5.029v13.4a.98.98,0,1,0,1.959,0v-13.4A6.987,6.987,0,0,0,147.924,90H117.286a.98.98,0,1,0,0,1.959Z" transform="translate(-101.113 -78.244)" fill="#009eff" stroke="#009eff" stroke-width="1.5"/>
    <path id="Path_1042" data-name="Path 1042" d="M40.019,122.207H21.544a.98.98,0,0,0-.747.346l-5.551,6.534-5.551-6.534a.98.98,0,0,0-.747-.346H6.969a5.025,5.025,0,0,1-5.009-5.029V96.989a5.025,5.025,0,0,1,5.009-5.029h4.661a.98.98,0,1,0,0-1.959H6.969A6.987,6.987,0,0,0,0,96.989v20.189a6.987,6.987,0,0,0,6.969,6.989H8.5l6,7.068a.98.98,0,0,0,1.493,0l6-7.068H40.019a.98.98,0,1,0,0-1.959Z" transform="translate(0 -78.244)" fill="#009eff" stroke="#009eff" stroke-width="1.5"/>
    <path id="Path_1043" data-name="Path 1043" d="M28.911,424.373H20a.98.98,0,0,0,0,1.959h8.907a2.264,2.264,0,0,1,0,4.529H4.217a2.264,2.264,0,0,1,0-4.529h.867a.98.98,0,0,0,.794-.405l1.7-2.352,1.7,2.352a.98.98,0,0,0,.794.405h5.4a.98.98,0,0,0,0-1.959h-4.9l-2.2-3.044a.98.98,0,0,0-1.587,0l-2.2,3.044H4.217a4.224,4.224,0,0,0,0,8.448H28.911a4.224,4.224,0,0,0,0-8.448Z" transform="translate(0 -365.94)" fill="#009eff" stroke="#009eff" stroke-width="1.5"/>
    <path id="Path_1044" data-name="Path 1044" d="M262.6,8.448h3.685a.98.98,0,1,0,0-1.959H262.6a2.265,2.265,0,0,1,0-4.529H287.29a2.265,2.265,0,0,1,0,4.529h-.867a.98.98,0,0,0-.794.405l-1.7,2.352-1.7-2.353a.98.98,0,0,0-.794-.405h-10.62a.98.98,0,1,0,0,1.959h10.12l2.2,3.044a.98.98,0,0,0,1.587,0l2.2-3.044h.366a4.224,4.224,0,0,0,0-8.448H262.6a4.224,4.224,0,0,0,0,8.448Z" transform="translate(-224.628)" fill="#009eff" stroke="#009eff" stroke-width="1.5"/>
    <path id="Path_1045" data-name="Path 1045" d="M103.335,184.386a.98.98,0,0,0,0,1.959h5.225a.98.98,0,0,0,.98-.98v-5.225a.98.98,0,0,0-.98-.98h-4.245V175.9h4.245a.98.98,0,1,0,0-1.959h-5.225a.98.98,0,0,0-.98.98v5.225a.98.98,0,0,0,.98.98h4.245v3.266Z" transform="translate(-88.985 -151.215)" fill="#009eff" stroke="#009eff" stroke-width="1.5"/>
    <path id="Path_1046" data-name="Path 1046" d="M183.558,175.9a.98.98,0,1,0,0-1.959h-5.225a.98.98,0,0,0-.98.98v10.45a.98.98,0,0,0,.98.98h5.225a.98.98,0,1,0,0-1.959h-4.245v-3.266h4.245a.98.98,0,1,0,0-1.959h-4.245V175.9Z" transform="translate(-154.186 -151.215)" fill="#009eff" stroke="#009eff" stroke-width="1.5"/>
    <path id="Path_1047" data-name="Path 1047" d="M253.332,173.936a.98.98,0,0,0-.98.98v10.45a.98.98,0,0,0,.98.98h5.225a.98.98,0,0,0,.98-.98v-10.45a.98.98,0,0,0-.98-.98Zm4.245,10.45h-3.266V175.9h3.266Z" transform="translate(-219.388 -151.215)" fill="#009eff" stroke="#009eff" stroke-width="1.5"/>
    <path id="Path_1048" data-name="Path 1048" d="M352.88,278.69a.979.979,0,0,0-.826-.967l-1.352-.214-.645-1.557.8-1.109a.98.98,0,0,0-.1-1.268l-2.767-2.767a.98.98,0,0,0-1.269-.1l-1.107.8-1.556-.645-.215-1.352a.98.98,0,0,0-.968-.826h0l-3.912,0a.98.98,0,0,0-.967.827l-.214,1.353-1.555.645-1.108-.8a.979.979,0,0,0-1.269.1l-2.765,2.769a.98.98,0,0,0-.1,1.268l.8,1.108-.644,1.558-1.351.215a.98.98,0,0,0-.826.968l0,3.914a.98.98,0,0,0,.826.967l1.352.214.645,1.557-.8,1.109a.98.98,0,0,0,.1,1.268l2.767,2.767a.98.98,0,0,0,1.269.1l1.107-.8,1.556.645.215,1.352a.98.98,0,0,0,.968.826h0l3.912,0a.98.98,0,0,0,.967-.826l.214-1.353,1.555-.645,1.108.8a.98.98,0,0,0,1.269-.1l2.765-2.769a.98.98,0,0,0,.1-1.268l-.8-1.108.644-1.558,1.351-.215a.98.98,0,0,0,.826-.968Zm-3.025,3.249a.98.98,0,0,0-.751.593L348.04,285.1a.98.98,0,0,0,.112.95l.635.875-1.583,1.585-.874-.635a.98.98,0,0,0-.951-.112l-2.568,1.066a.98.98,0,0,0-.592.752l-.169,1.069h-2.239l-.17-1.068a.98.98,0,0,0-.593-.751l-2.57-1.064a.98.98,0,0,0-.951.113l-.873.635-1.584-1.584.635-.876a.98.98,0,0,0,.112-.95l-1.065-2.57a.98.98,0,0,0-.752-.593l-1.067-.169v-2.242l1.067-.17a.979.979,0,0,0,.751-.593l1.063-2.572a.979.979,0,0,0-.113-.95l-.635-.875,1.583-1.585.874.635a.979.979,0,0,0,.951.112l2.568-1.066a.98.98,0,0,0,.592-.752l.169-1.068h2.239l.17,1.068a.98.98,0,0,0,.593.751l2.57,1.064a.98.98,0,0,0,.951-.113l.873-.635,1.584,1.584-.635.876a.98.98,0,0,0-.112.95l1.065,2.57a.98.98,0,0,0,.752.593l1.067.169v2.242Z" transform="translate(-286 -233.592)" fill="#009eff" stroke="#009eff" stroke-width="1.5"/>
    <path id="Path_1049" data-name="Path 1049" d="M390.444,325.075a.98.98,0,0,0-.98.98,3.177,3.177,0,1,1-1.864-2.9.98.98,0,1,0,.812-1.783,5.14,5.14,0,1,0,3.012,4.679A.98.98,0,0,0,390.444,325.075Z" transform="translate(-331.357 -278.995)" fill="#009eff" stroke="#009eff" stroke-width="1.5"/>
  </g>
</svg>
