<svg xmlns="http://www.w3.org/2000/svg" width="55.13" height="55.13" viewBox="0 0 55.13 55.13">
  <g id="shop" transform="translate(0 -9.188)">
    <path id="Path_184" data-name="Path 184" d="M53.09,29.7a8.026,8.026,0,0,1-6.4-3.179,7.707,7.707,0,0,1-12.609-.193,8.609,8.609,0,0,1-13.58.11A8.037,8.037,0,0,1,6,21.661V10.75H9.446V21.661a4.594,4.594,0,1,0,9.188,0v-4.02a1.723,1.723,0,1,1,3.446,0v3.446a5.168,5.168,0,0,0,10.337,0V17.641a1.723,1.723,0,1,1,3.446,0v3.446a4.912,4.912,0,0,0,4.594,5.168,4.912,4.912,0,0,0,4.594-5.168V17.641a1.723,1.723,0,1,1,3.446,0v4.02a4.594,4.594,0,1,0,9.188,0V10.75H61.13V21.661A8.049,8.049,0,0,1,53.09,29.7Z" transform="translate(-6 9.349)" fill="#0583e0"/>
    <path id="Path_185" data-name="Path 185" d="M43.159,39.951H39.714V27.317a2.875,2.875,0,0,0-2.871-2.871H17.317a2.875,2.875,0,0,0-2.871,2.871V39.951H11V27.317A6.322,6.322,0,0,1,17.317,21H36.842a6.322,6.322,0,0,1,6.317,6.317Z" transform="translate(0.485 22.645)" fill="#0583e0"/>
    <path id="Path_186" data-name="Path 186" d="M6.75,10H58.434v3.446H6.75Z" transform="translate(-5.027 8.377)" fill="#0583e0"/>
    <path id="Path_187" data-name="Path 187" d="M54.813,61.13h-42.5A6.322,6.322,0,0,1,6,54.813v-37.9a1.723,1.723,0,0,1,.181-.77l3.96-7.918A3.994,3.994,0,0,1,13.737,6H53.393a3.992,3.992,0,0,1,3.595,2.224l3.96,7.916a1.74,1.74,0,0,1,.181.772v37.9a6.322,6.322,0,0,1-6.317,6.317ZM9.446,17.318v37.5a2.875,2.875,0,0,0,2.871,2.871h42.5a2.875,2.875,0,0,0,2.871-2.871v-37.5L53.906,9.763a.566.566,0,0,0-.512-.317H13.737a.574.574,0,0,0-.515.315v0Z" transform="translate(-6 3.188)" fill="#0583e0"/>
  </g>
</svg>
