<svg xmlns="http://www.w3.org/2000/svg" width="66.972" height="66.972" viewBox="0 0 66.972 66.972">
  <g id="skills" transform="translate(0.5 0.5)">
    <g id="Group_512" data-name="Group 512">
      <g id="Group_511" data-name="Group 511">
        <path id="Path_1174" data-name="Path 1174" d="M164.582,258.064l-4.513-2.733-.022-.014-2.472-1.5v-1.645a10.807,10.807,0,0,0,1.838-4.034,1.408,1.408,0,0,1,.374-.722l.033-.035a3.549,3.549,0,0,0,1-2.485v-2.33a3.589,3.589,0,0,0-.373-1.59l-.133-.27a1.387,1.387,0,0,1-.144-.614v-3.351a6.328,6.328,0,0,0-6.3-6.344h-3.9a6.328,6.328,0,0,0-6.3,6.344V240.1a1.393,1.393,0,0,1-.143.613l-.134.27a3.6,3.6,0,0,0-.373,1.591v2.33a3.551,3.551,0,0,0,1,2.484c.011.013.023.025.034.036a1.408,1.408,0,0,1,.374.722,10.792,10.792,0,0,0,1.838,4.034v1.645l-2.541,1.539c-.014.007-.026.016-.039.024l-4.428,2.682a5.733,5.733,0,0,0-2.737,4.873v2.648a1.1,1.1,0,0,0,1.1,1.1H166.22a1.1,1.1,0,0,0,1.1-1.1v-2.648A5.734,5.734,0,0,0,164.582,258.064ZM145.658,245.9a.462.462,0,0,0-.032-.034,1.389,1.389,0,0,1-.4-.969v-2.33a1.389,1.389,0,0,1,.143-.613l.135-.272a3.606,3.606,0,0,0,.372-1.589v-3.351a4.127,4.127,0,0,1,4.1-4.145h3.9a4.126,4.126,0,0,1,4.1,4.145V240.1a3.6,3.6,0,0,0,.373,1.59l.134.272a1.382,1.382,0,0,1,.143.612v2.33a1.389,1.389,0,0,1-.4.969l-.032.033a3.614,3.614,0,0,0-.938,1.806h0a8.786,8.786,0,0,1-1.555,3.307,1.744,1.744,0,0,0-.326,1.016v1.781l-3.508,1.581-3.39-1.574v-1.788a1.752,1.752,0,0,0-.331-1.022,8.767,8.767,0,0,1-1.55-3.3A3.612,3.612,0,0,0,145.658,245.9Zm7.321,13.275-.607.911H151.35l-.608-.911,1.119-1.06Zm-5.1,5.309h-9.15v-1.548a3.521,3.521,0,0,1,1.678-2.993l3.765-2.28,2.167,1.7a3.389,3.389,0,0,0,2.088.722c.088,0,.174-.015.262-.023l.8,1.2Zm1.342-6.9a.967.967,0,0,1-.406.229,1.166,1.166,0,0,1-1.117-.175l-1.517-1.191,1.186-.719,2.559,1.189Zm1.118,6.9,1.1-2.2h.84l1.1,2.2Zm6.137-8.759,1.115.675-1.576,1.238a1.2,1.2,0,0,1-1.173.154.858.858,0,0,1-.348-.208l-.69-.655Zm8.642,8.759h-9.282l-1.609-3.22.8-1.206c.089.007.178.023.267.023a3.36,3.36,0,0,0,2.078-.715l2.225-1.749,3.837,2.324a3.522,3.522,0,0,1,1.68,2.994v1.548Z" transform="translate(-118.94 -200.713)" fill="#095adb" stroke="#095adb" stroke-width="1"/>
        <path id="Path_1175" data-name="Path 1175" d="M174.228,24.19a12.095,12.095,0,1,0-12.095-12.095A12.095,12.095,0,0,0,174.228,24.19Zm0-21.991a9.9,9.9,0,1,1-9.9,9.9A9.9,9.9,0,0,1,174.228,2.2Z" transform="translate(-141.242)" fill="#095adb" stroke="#095adb" stroke-width="1"/>
        <path id="Path_1176" data-name="Path 1176" d="M24.19,140.095A12.095,12.095,0,1,0,12.095,152.19,12.095,12.095,0,0,0,24.19,140.095Zm-12.095,9.9a9.9,9.9,0,1,1,9.9-9.9A9.9,9.9,0,0,1,12.095,149.991Z" transform="translate(0 -111.507)" fill="#095adb" stroke="#095adb" stroke-width="1"/>
        <path id="Path_1177" data-name="Path 1177" d="M336.361,128a12.095,12.095,0,1,0,12.095,12.095A12.095,12.095,0,0,0,336.361,128Zm0,21.991a9.9,9.9,0,1,1,9.9-9.9A9.9,9.9,0,0,1,336.361,149.991Z" transform="translate(-282.484 -111.507)" fill="#095adb" stroke="#095adb" stroke-width="1"/>
        <path id="Path_1178" data-name="Path 1178" d="M203.964,49.527a7.7,7.7,0,1,0-7.7-7.7A7.7,7.7,0,0,0,203.964,49.527Zm0-13.194a5.5,5.5,0,1,1-5.5,5.5A5.5,5.5,0,0,1,203.964,36.333Z" transform="translate(-170.978 -29.736)" fill="#095adb" stroke="#095adb" stroke-width="1"/>
        <path id="Path_1179" data-name="Path 1179" d="M233.7,74.864a3.3,3.3,0,1,0-3.3-3.3A3.3,3.3,0,0,0,233.7,74.864Zm0-4.4a1.1,1.1,0,1,1-1.1,1.1A1.1,1.1,0,0,1,233.7,70.466Z" transform="translate(-200.713 -59.471)" fill="#095adb" stroke="#095adb" stroke-width="1"/>
        <path id="Path_1180" data-name="Path 1180" d="M71.564,168.732a1.1,1.1,0,1,1,0-2.2h2.2a1.1,1.1,0,1,0,0-2.2h-1.1v-1.1a1.1,1.1,0,0,0-2.2,0v1.3a3.29,3.29,0,0,0,1.1,6.395,1.1,1.1,0,1,1,0,2.2h-2.2a1.1,1.1,0,0,0,0,2.2h1.1v1.1a1.1,1.1,0,0,0,2.2,0v-1.3a3.29,3.29,0,0,0-1.1-6.395Z" transform="translate(-59.469 -141.244)" fill="#095adb" stroke="#095adb" stroke-width="1"/>
        <path id="Path_1181" data-name="Path 1181" d="M380.019,188.465c-.009-.026-.013-.053-.024-.078,0-.007,0-.014-.006-.021a1.086,1.086,0,0,0-.2-.287c-.023-.024-.049-.041-.074-.063a1.136,1.136,0,0,0-.721-.283h-2.2a1.1,1.1,0,0,0-.141,2.19l-3.113,3.735-2.464-3.286a1.143,1.143,0,0,0-.909-.44,1.1,1.1,0,0,0-.885.49l-2.2,3.3a1.1,1.1,0,1,0,1.83,1.22l1.337-2.006,2.367,3.155a1.1,1.1,0,0,0,.852.44h.028a1.1,1.1,0,0,0,.845-.4l3.754-4.5a1.08,1.08,0,0,0,.9.5,1.1,1.1,0,0,0,1.1-1.1v-2.2c0-.02-.01-.037-.011-.057A1.068,1.068,0,0,0,380.019,188.465Z" transform="translate(-319.619 -163.543)" fill="#095adb" stroke="#095adb" stroke-width="1"/>
      </g>
    </g>
  </g>
</svg>
