<svg xmlns="http://www.w3.org/2000/svg" width="62.076" height="54.801" viewBox="0 0 62.076 54.801">
  <g id="solution_1_" data-name="solution (1)" transform="translate(0.001 -30)">
    <path id="Path_1062" data-name="Path 1062" d="M47.527,239.08,36.58,243.428a5.916,5.916,0,0,0-4.832-6.007l-7.832-1.4a11.518,11.518,0,0,0-9.7-6.9,11.345,11.345,0,0,0-7.742,2.291c-.311-.057-.105-.019-4.657-.031a1.819,1.819,0,1,0,0,3.637h2.51v21.1H1.818a1.819,1.819,0,0,0,0,3.637H6.147a1.819,1.819,0,0,0,1.819-1.819v-2.3h4.762l20.112,4.086a1.819,1.819,0,0,0,1.259-.2L57.637,246.18a1.819,1.819,0,0,0,.812-2.206A8.341,8.341,0,0,0,47.527,239.08ZM32.9,256.017,13.272,252.03c-.316-.064-.05-.024-5.307-.036V234.921a7.756,7.756,0,0,1,5.984-2.172,7.913,7.913,0,0,1,6.913,5.453,1.819,1.819,0,0,0,1.405,1.217L31.106,241a2.278,2.278,0,0,1,1.807,2.635l0,.02-.007.037a2.225,2.225,0,0,1-2.563,1.848h-.009l-.024,0-9.842-1.763a1.819,1.819,0,0,0-.641,3.58c11.037,1.977,9.735,1.742,9.873,1.769,2.47.442,2.59-.2,19.173-6.661a4.712,4.712,0,0,1,5.42,1.435Z" transform="translate(0 -174.952)" fill="#095adb"/>
    <path id="Path_1063" data-name="Path 1063" d="M196.327,89a5.577,5.577,0,1,0,5.577,5.577A5.584,5.584,0,0,0,196.327,89Zm0,7.517a1.94,1.94,0,1,1,1.94-1.94A1.942,1.942,0,0,1,196.327,96.517Z" transform="translate(-167.624 -51.847)" fill="#095adb"/>
    <path id="Path_1064" data-name="Path 1064" d="M172.177,37.4H155.891a12.792,12.792,0,1,0-.058,10.912h3.582v5.456a1.819,1.819,0,0,0,1.819,1.819h7.275a1.819,1.819,0,0,0,1.819-1.819V48.308h1.849a5.456,5.456,0,0,0,0-10.912Zm0,7.275h-3.668a1.819,1.819,0,0,0-1.819,1.819v5.456h-3.637V46.489a1.819,1.819,0,0,0-1.819-1.819h-6.611a1.819,1.819,0,0,0-1.712,1.206,9.154,9.154,0,1,1,.036-6.069,1.819,1.819,0,0,0,1.719,1.226h17.51a1.819,1.819,0,1,1,0,3.637Z" transform="translate(-115.558 0)" fill="#095adb"/>
  </g>
</svg>
