<svg xmlns="http://www.w3.org/2000/svg" width="39.093" height="63.723" viewBox="0 0 39.093 63.723">
  <g id="solution_2_" data-name="solution (2)" transform="translate(-98.948)">
    <g id="Group_514" data-name="Group 514" transform="translate(98.948 10.969)">
      <g id="Group_513" data-name="Group 513" transform="translate(0)">
        <path id="Path_1190" data-name="Path 1190" d="M138.041,107.683a19.547,19.547,0,1,0-30.216,16.38v6.158a10.67,10.67,0,0,0,21.339,0v-6.158A19.614,19.614,0,0,0,138.041,107.683ZM125.4,130.22a6.9,6.9,0,0,1-13.8,0v-1.575h13.8Zm.946-8.846a1.884,1.884,0,0,0-.946,1.634v1.869h-5.017v-9.743a6.114,6.114,0,0,0,4.22-5.805,1.884,1.884,0,1,0-3.768,0,2.336,2.336,0,1,1-4.672,0,1.884,1.884,0,1,0-3.768,0,6.114,6.114,0,0,0,4.22,5.805v9.743h-5.017v-1.869a1.884,1.884,0,0,0-.946-1.634,15.779,15.779,0,1,1,15.694,0Z" transform="translate(-98.948 -88.136)" fill="#095adb"/>
      </g>
    </g>
    <g id="Group_516" data-name="Group 516" transform="translate(116.61)">
      <g id="Group_515" data-name="Group 515" transform="translate(0)">
        <path id="Path_1191" data-name="Path 1191" d="M242.745,0a1.884,1.884,0,0,0-1.884,1.884V5.192a1.884,1.884,0,0,0,3.768,0V1.884A1.884,1.884,0,0,0,242.745,0Z" transform="translate(-240.861)" fill="#095adb"/>
      </g>
    </g>
    <g id="Group_518" data-name="Group 518" transform="translate(108.378 1.362)">
      <g id="Group_517" data-name="Group 517" transform="translate(0)">
        <path id="Path_1192" data-name="Path 1192" d="M179.535,15.259l-1.169-3.094a1.884,1.884,0,1,0-3.525,1.332l1.169,3.094a1.884,1.884,0,0,0,3.525-1.332Z" transform="translate(-174.719 -10.947)" fill="#095adb"/>
      </g>
    </g>
    <g id="Group_520" data-name="Group 520" transform="translate(123.672 1.362)">
      <g id="Group_519" data-name="Group 519">
        <path id="Path_1193" data-name="Path 1193" d="M301.32,11.068a1.884,1.884,0,0,0-2.428,1.1l-1.169,3.094a1.884,1.884,0,1,0,3.525,1.332l1.169-3.094A1.884,1.884,0,0,0,301.32,11.068Z" transform="translate(-297.6 -10.946)" fill="#095adb"/>
      </g>
    </g>
  </g>
</svg>
