<svg xmlns="http://www.w3.org/2000/svg" width="49.067" height="49.064" viewBox="0 0 49.067 49.064">
  <path id="stock-exchange-app" d="M49.067,24.356v8.529a1.917,1.917,0,0,1-3.833,0V29.1l-6.1,6.1a1.916,1.916,0,0,1-1.355.561H28.107L15.348,48.52a1.917,1.917,0,0,1-2.711-2.711L25.958,32.488a1.916,1.916,0,0,1,1.355-.561h9.672l5.654-5.654H38.525a1.917,1.917,0,0,1,0-3.833H47.15A1.917,1.917,0,0,1,49.067,24.356ZM47.15,38.635a1.917,1.917,0,0,0-1.917,1.917v6.612a1.917,1.917,0,0,0,3.833,0V40.552A1.917,1.917,0,0,0,47.15,38.635Zm-7.667,0a1.917,1.917,0,0,0-1.917,1.917v6.612a1.917,1.917,0,0,0,3.833,0V40.552A1.917,1.917,0,0,0,39.484,38.635Zm-7.667,0A1.917,1.917,0,0,0,29.9,40.552v6.612a1.917,1.917,0,0,0,3.833,0V40.552A1.917,1.917,0,0,0,31.817,38.635Zm-7.667,5.846A1.917,1.917,0,0,0,22.234,46.4v.767a1.917,1.917,0,0,0,3.833,0V46.4A1.917,1.917,0,0,0,24.151,44.481ZM20.221,32.5a1.917,1.917,0,0,0,1.917-1.917V29.408a5.765,5.765,0,0,0-1.917-11.185,1.91,1.91,0,0,1,0-3.82,1.763,1.763,0,0,1,1.686,1.119,1.917,1.917,0,0,0,3.529-1.5,5.588,5.588,0,0,0-3.3-3.131V9.6a1.917,1.917,0,0,0-3.833,0v1.3a5.748,5.748,0,0,0,1.917,11.158,1.924,1.924,0,0,1,0,3.847,2.037,2.037,0,0,1-1.8-1.183,1.917,1.917,0,1,0-3.5,1.571A5.923,5.923,0,0,0,18.3,29.4v1.189A1.917,1.917,0,0,0,20.221,32.5Zm-6.613,6.562a1.917,1.917,0,0,0,.686-3.707C-2.393,28.619,2.089,4.148,20.126,3.848a16.253,16.253,0,0,1,16.046,13.46,1.917,1.917,0,1,0,3.776-.661,20.148,20.148,0,0,0-6.81-11.86C20.217-6.256-.057,3.123,0,20.14a20.2,20.2,0,0,0,12.922,18.8,1.912,1.912,0,0,0,.686.128Z" transform="translate(0 -0.017)" fill="#009eff"/>
</svg>
