<svg xmlns="http://www.w3.org/2000/svg" width="58.563" height="58.563" viewBox="0 0 58.563 58.563">
  <g id="surveyor2" transform="translate(0)">
    <path id="Path_1035" data-name="Path 1035" d="M265.965,0H245.147A5.153,5.153,0,0,0,240,5.147v13.84a5.153,5.153,0,0,0,5.147,5.147h1.83v5.147a1.716,1.716,0,0,0,2.929,1.213l6.36-6.36h9.7a5.153,5.153,0,0,0,5.147-5.147V5.147A5.153,5.153,0,0,0,265.965,0Zm1.716,18.987a1.718,1.718,0,0,1-1.716,1.716H255.556a1.716,1.716,0,0,0-1.213.5l-3.934,3.934V22.419a1.716,1.716,0,0,0-1.716-1.716h-3.546a1.718,1.718,0,0,1-1.716-1.716V5.147a1.718,1.718,0,0,1,1.716-1.716h20.818a1.718,1.718,0,0,1,1.716,1.716Z" transform="translate(-212.548 0)" fill="#095adb"/>
    <path id="Path_1036" data-name="Path 1036" d="M331.723,76.5l-3.934,3.934-1.36-1.36A1.716,1.716,0,1,0,324,81.5l2.574,2.574a1.716,1.716,0,0,0,2.426,0l5.147-5.147a1.716,1.716,0,0,0-2.426-2.426Z" transform="translate(-286.497 -67.307)" fill="#095adb"/>
    <path id="Path_1037" data-name="Path 1037" d="M3.432,263.414s0,0,0,0v6.863A1.716,1.716,0,0,0,5.147,272H25.736a1.716,1.716,0,0,0,1.628-1.173l1.9-5.692a5.143,5.143,0,0,0,3.062-9.207l1.906-5.812a1.716,1.716,0,0,0-1.63-2.25H30.711A8.593,8.593,0,0,0,22.3,241H8.579A8.588,8.588,0,0,0,0,249.579v6.977a8.57,8.57,0,0,0,3.432,6.858Zm3.431,1.548a8.587,8.587,0,0,0,1.716.173h3.33l-1.138,3.431H6.863Zm7.523,3.6c.029-.087,5.667-17.092,5.725-17.272H30.23l-1.163,3.546H25.736a1.716,1.716,0,0,0-1.716,1.716v6.863a1.714,1.714,0,0,0,1.624,1.711L24.5,268.566ZM29.167,261.7H27.452v-3.431h1.716a1.716,1.716,0,1,1,0,3.431ZM3.431,249.579a5.153,5.153,0,0,1,5.147-5.147H22.3a5.155,5.155,0,0,1,4.852,3.431H18.873a1.716,1.716,0,0,0-1.629,1.176l-1.923,5.8H10.294v-5.262a1.716,1.716,0,0,0-3.431,0v6.977a1.716,1.716,0,0,0,1.716,1.716h5.605L13.046,261.7H8.579a5.153,5.153,0,0,1-5.147-5.147Z" transform="translate(0 -213.434)" fill="#095adb"/>
    <path id="Path_1038" data-name="Path 1038" d="M77.157,99.579a8.579,8.579,0,1,0-8.579,8.579A8.588,8.588,0,0,0,77.157,99.579Zm-8.579,5.147a5.147,5.147,0,1,1,5.147-5.147A5.153,5.153,0,0,1,68.579,104.726Z" transform="translate(-53.137 -80.591)" fill="#095adb"/>
  </g>
</svg>
