<svg xmlns="http://www.w3.org/2000/svg" width="67.422" height="67.422" viewBox="0 0 67.422 67.422">
  <g id="surveyor" transform="translate(0)">
    <path id="Path_1035" data-name="Path 1035" d="M269.892,0H245.926A5.932,5.932,0,0,0,240,5.926V21.859a5.932,5.932,0,0,0,5.926,5.926h2.107v5.926a1.975,1.975,0,0,0,3.372,1.4l7.322-7.322h11.165a5.932,5.932,0,0,0,5.926-5.926V5.926A5.932,5.932,0,0,0,269.892,0Zm1.975,21.859a1.977,1.977,0,0,1-1.975,1.975H257.909a1.975,1.975,0,0,0-1.4.578l-4.529,4.529V25.81a1.975,1.975,0,0,0-1.975-1.975h-4.082a1.977,1.977,0,0,1-1.975-1.975V5.926a1.977,1.977,0,0,1,1.975-1.975h23.966a1.977,1.977,0,0,1,1.975,1.975Z" transform="translate(-208.396 0)" fill="#009eff"/>
    <path id="Path_1036" data-name="Path 1036" d="M332.967,76.578l-4.529,4.529-1.566-1.566a1.975,1.975,0,0,0-2.793,2.793l2.963,2.963a1.975,1.975,0,0,0,2.793,0l5.926-5.926a1.975,1.975,0,0,0-2.793-2.793Z" transform="translate(-280.9 -65.992)" fill="#009eff"/>
    <path id="Path_1037" data-name="Path 1037" d="M3.951,266.8s0,0,0,.005v7.9a1.975,1.975,0,0,0,1.975,1.975h23.7a1.975,1.975,0,0,0,1.874-1.351l2.184-6.553a5.921,5.921,0,0,0,3.525-10.6l2.195-6.691A1.975,1.975,0,0,0,37.53,248.9H35.356a9.893,9.893,0,0,0-9.677-7.9H9.876A9.887,9.887,0,0,0,0,250.876v8.033a9.867,9.867,0,0,0,3.951,7.9Zm3.95,1.782a9.884,9.884,0,0,0,1.975.2H13.71l-1.31,3.951H7.9Zm8.661,4.149c.033-.1,6.524-19.678,6.592-19.884H34.8l-1.339,4.082H29.629a1.975,1.975,0,0,0-1.975,1.975v7.9a1.974,1.974,0,0,0,1.87,1.97L28.2,272.735Zm17.017-7.9H31.6v-3.95h1.975a1.975,1.975,0,1,1,0,3.95ZM3.95,250.876a5.932,5.932,0,0,1,5.926-5.926h15.8a5.935,5.935,0,0,1,5.586,3.95H21.728a1.975,1.975,0,0,0-1.875,1.354l-2.214,6.679H11.851v-6.057a1.975,1.975,0,0,0-3.95,0v8.033a1.975,1.975,0,0,0,1.975,1.975h6.453l-1.31,3.95H9.876a5.932,5.932,0,0,1-5.926-5.926Z" transform="translate(0 -209.264)" fill="#009eff"/>
    <path id="Path_1038" data-name="Path 1038" d="M79.752,100.876a9.876,9.876,0,1,0-9.876,9.876A9.887,9.887,0,0,0,79.752,100.876ZM69.876,106.8a5.926,5.926,0,1,1,5.926-5.926A5.932,5.932,0,0,1,69.876,106.8Z" transform="translate(-52.099 -79.017)" fill="#009eff"/>
  </g>
</svg>
