<svg xmlns="http://www.w3.org/2000/svg" width="60.876" height="60.879" viewBox="0 0 60.876 60.879">
  <g id="system" transform="translate(0.488 0.5)">
    <g id="Group_559" data-name="Group 559" transform="translate(0.012 0)">
      <g id="Group_558" data-name="Group 558" transform="translate(0 0)">
        <path id="Path_1245" data-name="Path 1245" d="M266.643,273.486a6.833,6.833,0,1,0-4.834-2A6.815,6.815,0,0,0,266.643,273.486Zm-3.594-10.426a5.082,5.082,0,1,1,0,7.187A5.066,5.066,0,0,1,263.049,263.06Z" transform="translate(-229.441 -229.449)" fill="#095adb" stroke="#095adb" stroke-width="1"/>
        <path id="Path_1246" data-name="Path 1246" d="M225.214,225.338a11.21,11.21,0,0,0-2.4,12.359.877.877,0,0,0,1.614-.685,9.5,9.5,0,1,1,8.8,5.784h-.057a9.441,9.441,0,0,1-6.63-2.7.877.877,0,1,0-1.224,1.255,11.182,11.182,0,0,0,7.854,3.2h.068a11.253,11.253,0,1,0-8.024-19.211Z" transform="translate(-195.97 -196.091)" fill="#095adb" stroke="#095adb" stroke-width="1"/>
        <path id="Path_1247" data-name="Path 1247" d="M58.209,33.268h-3.12a18.149,18.149,0,0,0-2.45-5.922l2.2-2.2a1.679,1.679,0,0,0,0-2.375L51.65,19.575a1.679,1.679,0,0,0-2.375,0l-2.2,2.2a18.147,18.147,0,0,0-5.922-2.451v-3.12a1.681,1.681,0,0,0-1.679-1.679H34.956a1.676,1.676,0,0,0-1.3.613h-.573a14.828,14.828,0,0,0-1.9-4.594l1.686-1.686a1.527,1.527,0,0,0,0-2.157l-2.58-2.58a1.525,1.525,0,0,0-2.157,0L26.449,5.813a14.827,14.827,0,0,0-4.594-1.9V1.525A1.527,1.527,0,0,0,20.33,0H16.681a1.527,1.527,0,0,0-1.525,1.525V3.912a14.831,14.831,0,0,0-4.594,1.9L8.875,4.127a1.525,1.525,0,0,0-2.157,0l-2.58,2.58a1.527,1.527,0,0,0,0,2.157L5.825,10.55a14.829,14.829,0,0,0-1.9,4.594H1.537A1.527,1.527,0,0,0,.012,16.669v3.649a1.527,1.527,0,0,0,1.525,1.525H3.924a14.826,14.826,0,0,0,1.9,4.594L4.138,28.123a1.527,1.527,0,0,0,0,2.157l2.58,2.58a1.527,1.527,0,0,0,2.157,0l1.686-1.686a14.824,14.824,0,0,0,4.594,1.9v.574a1.676,1.676,0,0,0-.616,1.3v4.515a1.681,1.681,0,0,0,1.679,1.679h3.12a18.151,18.151,0,0,0,2.45,5.922l-2.2,2.2a1.679,1.679,0,0,0,0,2.375l3.192,3.192a1.679,1.679,0,0,0,2.375,0l2.2-2.2a18.145,18.145,0,0,0,5.922,2.45V58.2a1.681,1.681,0,0,0,1.679,1.679h4.515A1.681,1.681,0,0,0,41.15,58.2V55.08a18.147,18.147,0,0,0,5.922-2.45l2.2,2.2a1.679,1.679,0,0,0,2.374,0l3.192-3.192a1.679,1.679,0,0,0,0-2.375l-2.2-2.2a18.15,18.15,0,0,0,2.45-5.922h3.12a1.681,1.681,0,0,0,1.679-1.679V34.947A1.681,1.681,0,0,0,58.209,33.268ZM15.7,31.4a13.088,13.088,0,0,1-4.344-1.8,1.535,1.535,0,0,0-1.907.2L7.8,31.459,5.54,29.2l1.655-1.655a1.535,1.535,0,0,0,.2-1.907A13.086,13.086,0,0,1,5.6,21.3a1.535,1.535,0,0,0-1.491-1.206H1.765V16.9H4.107A1.536,1.536,0,0,0,5.6,15.691a13.086,13.086,0,0,1,1.8-4.344,1.535,1.535,0,0,0-.2-1.907L5.54,7.785,7.8,5.528,9.452,7.183a1.535,1.535,0,0,0,1.907.2,13.086,13.086,0,0,1,4.344-1.8A1.535,1.535,0,0,0,16.909,4.1V1.753H20.1V4.1a1.535,1.535,0,0,0,1.206,1.491,13.09,13.09,0,0,1,4.344,1.8,1.535,1.535,0,0,0,1.907-.2l1.655-1.655,2.257,2.257L29.816,9.44a1.535,1.535,0,0,0-.2,1.907,13.086,13.086,0,0,1,1.8,4.344A1.535,1.535,0,0,0,32.9,16.9h.374v2.432a18.145,18.145,0,0,0-5.922,2.451l-2.2-2.2c-.026-.026-.054-.05-.082-.074a6.643,6.643,0,0,0-8.894-7.233.877.877,0,0,0,.614,1.643A4.888,4.888,0,0,1,23.341,19.2a1.676,1.676,0,0,0-.564.372l-3.192,3.192a1.674,1.674,0,0,0-.372.565,4.909,4.909,0,0,1-.707.053A4.893,4.893,0,0,1,14.237,16.1a.877.877,0,0,0-1.529-.858,6.641,6.641,0,0,0,6.8,9.816c.025.028.049.057.076.084l2.2,2.2a18.149,18.149,0,0,0-2.45,5.922H16.909v-.377A1.535,1.535,0,0,0,15.7,31.4Zm42.432,7.987H55.029a1.691,1.691,0,0,0-1.641,1.329,16.4,16.4,0,0,1-2.253,5.444,1.69,1.69,0,0,0,.221,2.1l2.194,2.195-3.087,3.087-2.194-2.195a1.69,1.69,0,0,0-2.1-.221,16.4,16.4,0,0,1-5.444,2.253A1.69,1.69,0,0,0,39.4,55.019v3.106H35.031V55.019A1.691,1.691,0,0,0,33.7,53.378a16.4,16.4,0,0,1-5.444-2.253,1.69,1.69,0,0,0-2.1.221l-2.194,2.195-3.087-3.087,2.194-2.195a1.69,1.69,0,0,0,.221-2.1,16.4,16.4,0,0,1-2.253-5.444A1.691,1.691,0,0,0,19.4,39.387H16.293V35.021H19.4a1.691,1.691,0,0,0,1.641-1.329,16.4,16.4,0,0,1,2.253-5.444,1.69,1.69,0,0,0-.221-2.1l-2.194-2.195,3.087-3.087,2.194,2.195a1.69,1.69,0,0,0,2.1.221A16.4,16.4,0,0,1,33.7,21.031a1.69,1.69,0,0,0,1.329-1.641V16.284H39.4v3.106a1.69,1.69,0,0,0,1.329,1.641,16.4,16.4,0,0,1,5.444,2.253,1.69,1.69,0,0,0,2.1-.221l2.194-2.195,3.087,3.087L51.356,26.15a1.689,1.689,0,0,0-.221,2.1,16.4,16.4,0,0,1,2.253,5.444,1.691,1.691,0,0,0,1.641,1.329h3.106v4.366Z" transform="translate(-0.012 0)" fill="#095adb" stroke="#095adb" stroke-width="1"/>
      </g>
    </g>
  </g>
</svg>
