<svg id="target_1_" data-name="target (1)" xmlns="http://www.w3.org/2000/svg" width="70" height="70" viewBox="0 0 70 70">
  <path id="Path_1055" data-name="Path 1055" d="M212.406,129.2a8.2,8.2,0,1,0-8.2,8.2A8.212,8.212,0,0,0,212.406,129.2Zm-8.2,4.1a4.1,4.1,0,1,1,4.1-4.1A4.106,4.106,0,0,1,204.2,133.3Z" transform="translate(-169.203 -104.457)" fill="#009eff"/>
  <path id="Path_1056" data-name="Path 1056" d="M191.254,241A10.266,10.266,0,0,0,181,251.254v10.254h20.508V251.254A10.266,10.266,0,0,0,191.254,241Zm6.152,16.406H185.1v-6.152a6.152,6.152,0,0,1,12.3,0Z" transform="translate(-156.254 -208.051)" fill="#009eff"/>
  <path id="Path_1057" data-name="Path 1057" d="M37.051,4.307V0h-4.1V4.307A30.743,30.743,0,0,0,4.307,32.949H0v4.1H4.307A30.743,30.743,0,0,0,32.949,65.693V70h4.1V65.693A30.743,30.743,0,0,0,65.693,37.051H70v-4.1H65.693A30.743,30.743,0,0,0,37.051,4.307Zm0,57.275V57.559h-4.1v4.023A26.7,26.7,0,0,1,8.418,37.051h4.023v-4.1H8.418A26.7,26.7,0,0,1,32.949,8.418v4.023h4.1V8.418A26.7,26.7,0,0,1,61.582,32.949H57.559v4.1h4.023A26.7,26.7,0,0,1,37.051,61.582Z" transform="translate(0)" fill="#009eff"/>
</svg>
