<svg xmlns="http://www.w3.org/2000/svg" width="57.519" height="57.519" viewBox="0 0 57.519 57.519">
  <path id="target" d="M29.749,1.979A27.735,27.735,0,0,0,17,5.084L12.409.494a1.687,1.687,0,0,0-2.774.6L7.317,7.317,1.1,9.635a1.687,1.687,0,0,0-.6,2.774L5.084,17A27.766,27.766,0,1,0,29.749,1.979Zm0,36.909a9.139,9.139,0,1,0-5.155-16.681l-4.243-4.243a15.1,15.1,0,1,1-2.386,2.386l4.243,4.243a9.134,9.134,0,0,0,7.541,14.295Zm1.193-10.333-3.9-3.9a5.77,5.77,0,1,1-2.386,2.386l3.9,3.9a1.687,1.687,0,0,0,2.386-2.386ZM11.88,4.737l5.678,5.678-.73,4.026L10.589,8.2ZM4.737,11.88,8.2,10.588l6.239,6.239-4.027.73ZM29.749,54.144A24.387,24.387,0,0,1,7.606,19.521l1.048,1.048a1.688,1.688,0,0,0,1.494.467l3.718-.674a18.469,18.469,0,1,0,6.5-6.5l.674-3.718a1.688,1.688,0,0,0-.467-1.494L19.521,7.606A24.393,24.393,0,1,1,29.749,54.144Z" transform="translate(0 0)" fill="#095adb"/>
</svg>
