<svg id="thunderbolt" xmlns="http://www.w3.org/2000/svg" width="65.009" height="65.009" viewBox="0 0 65.009 65.009">
  <path id="Path_1115" data-name="Path 1115" d="M13.282,9.364A2.032,2.032,0,0,1,11.25,7.332v-5.3a2.032,2.032,0,1,1,4.063,0v5.3A2.032,2.032,0,0,1,13.282,9.364Z" transform="translate(19.223)" fill="#095adb"/>
  <path id="Path_1116" data-name="Path 1116" d="M19.852,11.108a2.033,2.033,0,0,1-1.436-3.47l3.749-3.749a2.032,2.032,0,1,1,2.874,2.874L21.29,10.512A2.033,2.033,0,0,1,19.852,11.108Z" transform="translate(30.451 5.629)" fill="#095adb"/>
  <path id="Path_1117" data-name="Path 1117" d="M27.874,15.313h-5.3a2.032,2.032,0,0,1,0-4.063h5.3a2.032,2.032,0,0,1,0,4.063Z" transform="translate(35.104 19.223)" fill="#095adb"/>
  <path id="Path_1118" data-name="Path 1118" d="M23.6,25.634a2.016,2.016,0,0,1-1.436-.6l-3.749-3.749a2.032,2.032,0,1,1,2.874-2.874l3.749,3.749a2.033,2.033,0,0,1-1.438,3.47Z" transform="translate(30.451 30.449)" fill="#095adb"/>
  <path id="Path_1119" data-name="Path 1119" d="M13.282,29.907a2.032,2.032,0,0,1-2.032-2.032v-5.3a2.032,2.032,0,1,1,4.063,0v5.3A2.032,2.032,0,0,1,13.282,29.907Z" transform="translate(19.223 35.102)" fill="#095adb"/>
  <path id="Path_1120" data-name="Path 1120" d="M5.326,25.634a2.033,2.033,0,0,1-1.436-3.47l3.749-3.749a2.032,2.032,0,1,1,2.874,2.874L6.764,25.038A2.026,2.026,0,0,1,5.326,25.634Z" transform="translate(5.631 30.449)" fill="#095adb"/>
  <path id="Path_1121" data-name="Path 1121" d="M7.33,15.313h-5.3a2.032,2.032,0,0,1,0-4.063h5.3a2.032,2.032,0,0,1,0,4.063Z" transform="translate(0 19.223)" fill="#095adb"/>
  <path id="Path_1122" data-name="Path 1122" d="M9.075,11.108a2.016,2.016,0,0,1-1.436-.6L3.89,6.763A2.032,2.032,0,1,1,6.764,3.889l3.749,3.749a2.033,2.033,0,0,1-1.438,3.47Z" transform="translate(5.631 5.629)" fill="#095adb"/>
  <path id="Path_1123" data-name="Path 1123" d="M17.356,47.341a2.071,2.071,0,0,1-.7-.122,2.028,2.028,0,0,1-1.316-2.175L17.551,28.38H9.032a2.031,2.031,0,0,1-1.639-3.231l14.9-20.315a2.032,2.032,0,0,1,3.643,1.533L23.621,20.254h8.435a2.032,2.032,0,0,1,1.712,3.126L19.067,46.4a2.029,2.029,0,0,1-1.712.937Z" transform="translate(11.961 6.833)" fill="#095adb"/>
</svg>
