<svg xmlns="http://www.w3.org/2000/svg" width="45.465" height="59.519" viewBox="0 0 45.465 59.519">
  <g id="touchscreen" transform="translate(-60.445)">
    <path id="Path_1086" data-name="Path 1086" d="M100.679,136.275a5.2,5.2,0,0,0-2.855.851,5.219,5.219,0,0,0-6.975-1.162,5.221,5.221,0,0,0-5.864-1.714v-9.018a5.231,5.231,0,1,0-10.462,0v21.063l-5.783-4.048a5.269,5.269,0,0,0-6.425,8.339l12.208,10.329v2.911a1.744,1.744,0,0,0,1.744,1.744h27.9a1.744,1.744,0,0,0,1.744-1.744V141.506A5.237,5.237,0,0,0,100.679,136.275Zm1.744,25.807H78.011v-1.976a1.744,1.744,0,0,0-.617-1.331L64.568,147.922a1.781,1.781,0,0,1,2.172-2.819l8.526,5.968a1.744,1.744,0,0,0,2.744-1.429V125.231a1.744,1.744,0,0,1,3.487,0v19.762a1.744,1.744,0,1,0,3.487,0v-5.812a1.744,1.744,0,0,1,3.487,0v5.812a1.744,1.744,0,1,0,3.487,0v-4.65a1.744,1.744,0,0,1,3.487,0v4.65a1.744,1.744,0,1,0,3.487,0v-3.487a1.744,1.744,0,1,1,3.487,0v20.576Z" transform="translate(0 -106.05)" fill="#095adb"/>
    <path id="Path_1087" data-name="Path 1087" d="M274.465,83.364a1.744,1.744,0,1,0-2.326,2.6,8.733,8.733,0,0,1,2.906,6.5,1.744,1.744,0,1,0,3.487,0A12.224,12.224,0,0,0,274.465,83.364Z" transform="translate(-186.573 -73.281)" fill="#095adb"/>
    <path id="Path_1088" data-name="Path 1088" d="M123.3,73.95a1.744,1.744,0,0,0,1.744-1.744,8.728,8.728,0,0,1,8.719-8.719,1.744,1.744,0,1,0,0-3.487,12.22,12.22,0,0,0-12.206,12.206A1.744,1.744,0,0,0,123.3,73.95Z" transform="translate(-54.007 -53.025)" fill="#095adb"/>
    <path id="Path_1089" data-name="Path 1089" d="M67.1,98.159a1.744,1.744,0,0,0,1.363-2.83,15.519,15.519,0,0,1-3.42-9.762,15.686,15.686,0,0,1,2.091-7.833,1.744,1.744,0,1,0-3.02-1.743,19.178,19.178,0,0,0-2.558,9.576A18.972,18.972,0,0,0,65.735,97.5,1.74,1.74,0,0,0,67.1,98.159Z" transform="translate(-0.981 -66.386)" fill="#095adb"/>
    <path id="Path_1090" data-name="Path 1090" d="M124.344,6.624a15.7,15.7,0,0,1,18.831,0,1.744,1.744,0,0,0,2.095-2.788,19.186,19.186,0,0,0-23.021,0,1.744,1.744,0,0,0,2.095,2.788Z" transform="translate(-54.005 0)" fill="#095adb"/>
    <path id="Path_1091" data-name="Path 1091" d="M341.145,81.042a15.7,15.7,0,0,1-.668,4.518,1.744,1.744,0,1,0,3.34,1,19.165,19.165,0,0,0-2.139-15.753,1.744,1.744,0,0,0-2.948,1.863A15.644,15.644,0,0,1,341.145,81.042Z" transform="translate(-245.697 -61.861)" fill="#095adb"/>
  </g>
</svg>
