<svg xmlns="http://www.w3.org/2000/svg" width="59.198" height="59.198" viewBox="0 0 59.198 59.198">
  <g id="verify" transform="translate(0.5 0.5)">
    <path id="Path_1182" data-name="Path 1182" d="M26.762,42.524A15.762,15.762,0,1,1,42.524,26.762,15.78,15.78,0,0,1,26.762,42.524Zm0-29.1A13.337,13.337,0,1,0,40.1,26.762,13.353,13.353,0,0,0,26.762,13.425Z" transform="translate(15.674 15.674)" fill="#095adb" stroke="#095adb" stroke-width="1"/>
    <path id="Path_1183" data-name="Path 1183" d="M20.063,27.125a1.225,1.225,0,0,1-.858-.354l-4.85-4.85a1.212,1.212,0,0,1,1.714-1.714L20,24.14l7.634-8.725a1.212,1.212,0,0,1,1.826,1.6l-8.487,9.7a1.221,1.221,0,0,1-.873.415h-.039Z" transform="translate(19.949 21.374)" fill="#095adb" stroke="#095adb" stroke-width="1"/>
    <path id="Path_1184" data-name="Path 1184" d="M23.037,46.649H6.062A6.069,6.069,0,0,1,0,40.586V9.062A6.069,6.069,0,0,1,6.062,3h4.85a1.212,1.212,0,0,1,0,2.425H6.062A3.642,3.642,0,0,0,2.425,9.062V40.586a3.642,3.642,0,0,0,3.637,3.637H23.037a1.212,1.212,0,1,1,0,2.425Z" transform="translate(0 4.275)" fill="#095adb" stroke="#095adb" stroke-width="1"/>
    <path id="Path_1185" data-name="Path 1185" d="M22.912,17.55A1.213,1.213,0,0,1,21.7,16.337V9.062a3.642,3.642,0,0,0-3.637-3.637h-4.85a1.212,1.212,0,0,1,0-2.425h4.85a6.069,6.069,0,0,1,6.062,6.062v7.275A1.213,1.213,0,0,1,22.912,17.55Z" transform="translate(17.099 4.275)" fill="#095adb" stroke="#095adb" stroke-width="1"/>
    <path id="Path_1186" data-name="Path 1186" d="M22.187,14.55H7.637A3.642,3.642,0,0,1,4,10.912V6.062A1.213,1.213,0,0,1,5.212,4.85H8.971a6.064,6.064,0,0,1,11.882,0h3.759a1.213,1.213,0,0,1,1.212,1.212v4.85A3.642,3.642,0,0,1,22.187,14.55ZM6.425,7.275v3.637a1.214,1.214,0,0,0,1.212,1.212h14.55A1.214,1.214,0,0,0,23.4,10.912V7.275H19.762A1.213,1.213,0,0,1,18.55,6.062a3.637,3.637,0,1,0-7.275,0,1.213,1.213,0,0,1-1.212,1.212Z" transform="translate(5.7)" fill="#095adb" stroke="#095adb" stroke-width="1"/>
    <path id="Path_1187" data-name="Path 1187" d="M28.462,10.425H4.212A1.212,1.212,0,0,1,4.212,8H28.462a1.212,1.212,0,0,1,0,2.425Z" transform="translate(4.275 11.399)" fill="#095adb" stroke="#095adb" stroke-width="1"/>
    <path id="Path_1188" data-name="Path 1188" d="M21.187,13.425H4.212a1.212,1.212,0,0,1,0-2.425H21.187a1.212,1.212,0,0,1,0,2.425Z" transform="translate(4.275 15.674)" fill="#095adb" stroke="#095adb" stroke-width="1"/>
    <path id="Path_1189" data-name="Path 1189" d="M16.337,16.425H4.212a1.212,1.212,0,0,1,0-2.425H16.337a1.212,1.212,0,1,1,0,2.425Z" transform="translate(4.275 19.949)" fill="#095adb" stroke="#095adb" stroke-width="1"/>
  </g>
</svg>
