<svg xmlns="http://www.w3.org/2000/svg" width="63" height="65.179" viewBox="0 0 63 65.179">
  <g id="web" transform="translate(-7.51 0.538)">
    <g id="Group_429" data-name="Group 429" transform="translate(8.01 0)">
      <g id="Group_428" data-name="Group 428" transform="translate(0 0)">
        <path id="Path_1050" data-name="Path 1050" d="M63.6,7.485H50.662a12.805,12.805,0,0,0-23.293,0H14.424A6.42,6.42,0,0,0,8.01,13.9V47.037a6.42,6.42,0,0,0,6.414,6.414H31.115l-1.427,4.276H17.631a3.207,3.207,0,0,0,0,6.414H60.389a3.207,3.207,0,1,0,0-6.414H48.332l-1.427-4.276H63.6a6.42,6.42,0,0,0,6.414-6.414V13.9A6.42,6.42,0,0,0,63.6,7.485ZM39.01,2.14A10.69,10.69,0,1,1,28.32,12.83,10.69,10.69,0,0,1,39.01,2.14ZM60.389,59.865a1.069,1.069,0,0,1,0,2.138H17.631a1.069,1.069,0,1,1,0-2.138ZM31.942,57.727l1.427-4.276H44.651l1.425,4.276Zm35.93-10.69A4.276,4.276,0,0,1,63.6,51.313H14.424a4.276,4.276,0,0,1-4.276-4.276V44.9H67.872Zm0-4.276H10.148V13.9a4.276,4.276,0,0,1,4.276-4.276H26.61a12.66,12.66,0,0,0,1.71,10.282v7.119l-4.53,1.51a4.251,4.251,0,1,0,.174,2.195l5.763-1.924a1.069,1.069,0,0,0,.731-1.01V22.364A12.779,12.779,0,0,0,35.8,25.236V31.5l-1.924,1.283A4.408,4.408,0,1,0,35.31,34.4l2.155-1.437a1.069,1.069,0,0,0,.476-.889V25.6c.354.03.708.055,1.069.055s.715-.025,1.069-.055v4.33a1.069,1.069,0,0,0,.476.889L42.71,32.26a4.211,4.211,0,0,0-.493,1.95,4.289,4.289,0,1,0,1.924-3.565l-1.924-1.283V25.236a12.779,12.779,0,0,0,5.345-2.871v4.362a1.069,1.069,0,0,0,.591.957l5.893,2.946a4.265,4.265,0,1,0,.238-2.272L49.7,26.066v-6.16A12.66,12.66,0,0,0,51.415,9.623H63.6A4.276,4.276,0,0,1,67.872,13.9V42.761ZM21.907,29.934A2.138,2.138,0,1,1,19.769,27.8,2.138,2.138,0,0,1,21.907,29.934Zm11.759,6.414a2.138,2.138,0,1,1-2.138-2.138A2.138,2.138,0,0,1,33.665,36.347Zm10.69-2.138a2.138,2.138,0,1,1,2.138,2.138A2.138,2.138,0,0,1,44.355,34.209Zm11.759-4.276a2.138,2.138,0,1,1,2.138,2.138A2.138,2.138,0,0,1,56.113,29.934Z" transform="translate(-8.01 0)" fill="#009eff" stroke="#009eff" stroke-width="1"/>
      </g>
    </g>
    <g id="Group_431" data-name="Group 431" transform="translate(37.941 47.037)">
      <g id="Group_430" data-name="Group 430">
        <rect id="Rectangle_122" data-name="Rectangle 122" width="2.138" height="2.138" fill="#009eff" stroke="#009eff" stroke-width="1"/>
      </g>
    </g>
    <g id="Group_433" data-name="Group 433" transform="translate(33.978 4.279)">
      <g id="Group_432" data-name="Group 432" transform="translate(0)">
        <path id="Path_1051" data-name="Path 1051" d="M208.141,32.334a1.069,1.069,0,0,0-1.512,0l-4.276,4.276,1.512,1.512,2.451-2.451v7.04h2.138V35.67l2.451,2.451,1.512-1.512Z" transform="translate(-202.354 -32.021)" fill="#009eff" stroke="#009eff" stroke-width="1"/>
      </g>
    </g>
    <g id="Group_435" data-name="Group 435" transform="translate(32.596 14.968)">
      <g id="Group_434" data-name="Group 434" transform="translate(0)">
        <path id="Path_1052" data-name="Path 1052" d="M202.7,112.019v2.138h-8.552v-2.138H192.01v3.207a1.069,1.069,0,0,0,1.069,1.069h10.69a1.069,1.069,0,0,0,1.069-1.069v-3.207Z" transform="translate(-192.01 -112.019)" fill="#009eff" stroke="#009eff" stroke-width="1"/>
      </g>
    </g>
    <g id="Group_437" data-name="Group 437" transform="translate(13.355 17.106)">
      <g id="Group_436" data-name="Group 436">
        <rect id="Rectangle_123" data-name="Rectangle 123" width="9.621" height="2.138" fill="#009eff" stroke="#009eff" stroke-width="1"/>
      </g>
    </g>
    <g id="Group_439" data-name="Group 439" transform="translate(13.355 21.382)">
      <g id="Group_438" data-name="Group 438">
        <rect id="Rectangle_124" data-name="Rectangle 124" width="6.414" height="2.138" fill="#009eff" stroke="#009eff" stroke-width="1"/>
      </g>
    </g>
    <g id="Group_441" data-name="Group 441" transform="translate(17.631 12.83)">
      <g id="Group_440" data-name="Group 440">
        <rect id="Rectangle_125" data-name="Rectangle 125" width="5.345" height="2.138" fill="#009eff" stroke="#009eff" stroke-width="1"/>
      </g>
    </g>
    <g id="Group_443" data-name="Group 443" transform="translate(13.355 12.83)">
      <g id="Group_442" data-name="Group 442">
        <rect id="Rectangle_126" data-name="Rectangle 126" width="2.138" height="2.138" fill="#009eff" stroke="#009eff" stroke-width="1"/>
      </g>
    </g>
    <g id="Group_445" data-name="Group 445" transform="translate(13.355 37.416)">
      <g id="Group_444" data-name="Group 444">
        <rect id="Rectangle_127" data-name="Rectangle 127" width="2.138" height="2.138" fill="#009eff" stroke="#009eff" stroke-width="1"/>
      </g>
    </g>
    <g id="Group_447" data-name="Group 447" transform="translate(17.631 37.416)">
      <g id="Group_446" data-name="Group 446">
        <rect id="Rectangle_128" data-name="Rectangle 128" width="2.138" height="2.138" fill="#009eff" stroke="#009eff" stroke-width="1"/>
      </g>
    </g>
    <g id="Group_449" data-name="Group 449" transform="translate(21.907 37.416)">
      <g id="Group_448" data-name="Group 448">
        <rect id="Rectangle_129" data-name="Rectangle 129" width="2.138" height="2.138" fill="#009eff" stroke="#009eff" stroke-width="1"/>
      </g>
    </g>
    <g id="Group_451" data-name="Group 451" transform="translate(62.527 37.416)">
      <g id="Group_450" data-name="Group 450">
        <rect id="Rectangle_130" data-name="Rectangle 130" width="2.138" height="2.138" fill="#009eff" stroke="#009eff" stroke-width="1"/>
      </g>
    </g>
    <g id="Group_453" data-name="Group 453" transform="translate(58.251 37.416)">
      <g id="Group_452" data-name="Group 452">
        <rect id="Rectangle_131" data-name="Rectangle 131" width="2.138" height="2.138" fill="#009eff" stroke="#009eff" stroke-width="1"/>
      </g>
    </g>
    <g id="Group_455" data-name="Group 455" transform="translate(53.976 37.416)">
      <g id="Group_454" data-name="Group 454">
        <rect id="Rectangle_132" data-name="Rectangle 132" width="2.138" height="2.138" fill="#009eff" stroke="#009eff" stroke-width="1"/>
      </g>
    </g>
    <g id="Group_457" data-name="Group 457" transform="translate(55.044 17.106)">
      <g id="Group_456" data-name="Group 456">
        <rect id="Rectangle_133" data-name="Rectangle 133" width="9.621" height="2.138" fill="#009eff" stroke="#009eff" stroke-width="1"/>
      </g>
    </g>
    <g id="Group_459" data-name="Group 459" transform="translate(55.044 21.382)">
      <g id="Group_458" data-name="Group 458">
        <rect id="Rectangle_134" data-name="Rectangle 134" width="6.414" height="2.138" fill="#009eff" stroke="#009eff" stroke-width="1"/>
      </g>
    </g>
    <g id="Group_461" data-name="Group 461" transform="translate(59.32 12.83)">
      <g id="Group_460" data-name="Group 460">
        <rect id="Rectangle_135" data-name="Rectangle 135" width="5.345" height="2.138" fill="#009eff" stroke="#009eff" stroke-width="1"/>
      </g>
    </g>
    <g id="Group_463" data-name="Group 463" transform="translate(55.044 12.83)">
      <g id="Group_462" data-name="Group 462">
        <rect id="Rectangle_136" data-name="Rectangle 136" width="2.138" height="2.138" fill="#009eff" stroke="#009eff" stroke-width="1"/>
      </g>
    </g>
  </g>
</svg>
